SplineFontDB: 3.0
FontName: Experiment-Latin-Italic
FullName: Experiment-Latin
FamilyName: Experiment-Latin
Weight: Italic
Copyright: Copyright (c) 2015, Pathum Egodawatta
UComments: "2015-9-29: Created with FontForge (http://fontforge.org)"
Version: 0.001
ItalicAngle: -10
UnderlinePosition: 100
UnderlineWidth: 49
Ascent: 1000
Descent: 0
InvalidEm: 0
LayerCount: 2
Layer: 0 0 "Back" 1
Layer: 1 0 "Fore" 0
PreferredKerning: 4
XUID: [1021 779 -1439063335 14876943]
FSType: 0
OS2Version: 0
OS2_WeightWidthSlopeOnly: 0
OS2_UseTypoMetrics: 1
CreationTime: 1443542790
ModificationTime: 1458065322
PfmFamily: 17
TTFWeight: 400
TTFWidth: 5
LineGap: 122
VLineGap: 0
OS2TypoAscent: 129
OS2TypoAOffset: 1
OS2TypoDescent: 0
OS2TypoDOffset: 1
OS2TypoLinegap: 122
OS2WinAscent: 129
OS2WinAOffset: 1
OS2WinDescent: -161
OS2WinDOffset: 1
HheadAscent: 29
HheadAOffset: 1
HheadDescent: 183
HheadDOffset: 1
OS2CapHeight: 0
OS2XHeight: 0
OS2Vendor: 'PfEd'
MarkAttachClasses: 1
DEI: 91125
LangName: 1033
Encoding: ISO8859-1
UnicodeInterp: none
NameList: Adobe Glyph List
DisplaySize: -128
AntiAlias: 1
FitToEm: 1
WinInfo: 40 10 7
BeginPrivate: 0
EndPrivate
Grid
-1000 822.174682617 m 0
 2000 822.174682617 l 1024
-1000 801 m 0
 2000 801 l 1024
-1000 62 m 0
 2000 62 l 1024
2000 766 m 1024
-1000 1143 m 0
 2000 1143 l 1024
-1000 499 m 0
 2000 499 l 1024
-1000 612 m 0
 2000 612 l 1024
EndSplineSet
AnchorClass2: "thn_ubufibi" "" 
BeginChars: 260 71

StartChar: a
Encoding: 97 97 1
AltUni2: 0000aa.ffffffff.0
GlifName: uni0061
Width: 629
VWidth: 153
Flags: HMW
LayerCount: 2
Back
SplineSet
20.041015625 125 m 0
 7.849609375 366 213.510742188 543.211914062 371.364257812 591 c 0
 477.067382812 623 583.772460938 606 583.772460938 606 c 1
 535.137695312 462 l 1
 535.137695312 462 410.03125 559.744140625 298.782226562 514 c 0
 216.598632812 480.20703125 133.037109375 337.93359375 142.211914062 160 c 0
 145.063476562 104.698242188 169.4609375 65 211.755859375 65 c 0
 314.046875 65 406.806640625 268 430.036132812 329 c 5
 440.983398438 289 l 1
 440.983398438 289 348.708007812 -19 168.708007812 -19 c 0
 77.7080078125 -19 24.8125 30.685546875 20.041015625 125 c 0
583.11328125 603 m 1
 561.359375 525 470.328125 232 494.80859375 101 c 0
 501.801757812 63.578125 579.758789062 74 622.639648438 79 c 1
 626.763671875 40 l 1
 604.352539062 32 478.0625 -28 423.236328125 -10 c 0
 381.705078125 4 379.58203125 43 383.985351562 102 c 1
 389.973632812 156.63671875 459.966796875 390.32421875 457.581054688 597 c 1
 583.11328125 603 l 1
EndSplineSet
Fore
SplineSet
557 578 m 1
 525.137695312 472 l 1
 525.137695312 472 410.03125 559.744140625 298.782226562 514 c 0
 216.598632812 480.20703125 133.037109375 342.93359375 142.211914062 165 c 0
 145.063476562 109.698242188 169.4609375 70 211.755859375 70 c 0
 314.046875 70 407.806640625 268 431.036132812 329 c 1
 441.983398438 289 l 1
 441.983398438 289 348.708007812 -14 168.708007812 -14 c 0
 77.7080078125 -14 24.8125 35.685546875 20.041015625 130 c 0
 7.849609375 371 203.510742188 536.211914062 361.364257812 584 c 0
 467.067382812 616 576.772460938 606 576.772460938 606 c 1
 580.345703125 594.723632812 l 1
 563.15625 539.827148438 516.075195312 425.932617188 494.159179688 305 c 0
 487.548828125 268.526367188 482.796875 223.49609375 482.828125 185 c 0
 482.919921875 70.6201171875 539.643554688 67.06640625 642.639648438 79 c 1
 646.763671875 40 l 1
 623.302734375 28 480.223632812 -29.2099609375 423.236328125 -10 c 0
 381.705078125 4 379.268356541 43.0288836854 383.985351562 102 c 0
 384.841598728 112.704664935 387.754193122 130.460380644 393.809570312 153 c 0
 400.088177497 176.370536894 410.487304688 204.630859375 420.451171875 237 c 1
 419.421875 244.46875 418.377929688 252.142578125 417.329101562 260 c 1
 437.47265625 356.571289062 458.919921875 481.037109375 457.581054688 597 c 1
 512 576 l 1
 511.342773438 573.645507812 540.626953125 574.125 557 578 c 1
EndSplineSet
Validated: 4718629
Colour: ff0000
EndChar

StartChar: n
Encoding: 110 110 2
GlifName: uni006E_
Width: 736
VWidth: 79
Flags: HMW
LayerCount: 2
Back
SplineSet
195.756835938 555 m 5
 331.536132812 558.5390625 470.03125 608 472.048828125 608 c 5
 458.037109375 553.265625 428.60546875 468.028320312 404.732421875 321 c 4
 400.826171875 296.9453125 401.64453125 302.497070312 392.037109375 279 c 4
 356.874023438 193 363.474609375 98 365.841796875 -2 c 5
 320.841796875 -2 255.841796875 -10 210.841796875 -15 c 5
 247.232421875 79 289.271484375 196 305.493164062 288 c 4
 311.840820312 324 325.939453125 430.469726562 320.776367188 459 c 4
 313.409179688 499.709960938 263.647460938 492 182 494 c 5
 195.756835938 555 l 5
351.89453125 208 m 5
 422.884765625 456 592.022460938 613.430664062 718.75390625 611 c 4
 778.416015625 609.85546875 805.984375 586.135742188 805.182617188 523 c 4
 803.697265625 406.188476562 690.922851562 171.954101562 733.650390625 90 c 4
 751.25 56.2421875 818.600585938 63 861.481445312 68 c 5
 865.60546875 29 l 5
 846.279296875 22.1015625 732.26953125 -23.4658203125 668.841796875 -24.3388671875 c 4
 613.876953125 -25.09375 586.12890625 5.5048828125 595.590820312 58 c 4
 606.595703125 119.057617188 680.682617188 270.501953125 687.370117188 426 c 4
 689.1875 480.306640625 678.827148438 512.572265625 635.841796875 512.791992188 c 4
 530.405273438 513.331054688 401.696289062 291.228515625 366.370117188 184 c 13
 351.89453125 208 l 5
EndSplineSet
Fore
SplineSet
46.1513671875 555 m 1
 181.930664062 558.5390625 320.42578125 608 322.443359375 608 c 1
 311.290581823 564.43358822 280.487065249 480.367967191 252.414254373 375.000008585 c 0
 246.627097814 353.278604358 235.812925018 332.470839285 228.741210938 310 c 1
 230.966219029 303.071311431 233.098792759 296.070098996 235.126953125 289 c 0
 219.748046875 194.287109375 213.2890625 122.508789062 216.236328125 -2 c 1
 168.236328125 -1 95.236328125 -9 49.236328125 -22 c 1
 86.626953125 56 148.442382812 196.224609375 165.887695312 288 c 0
 200.189453125 468.452148438 195.966796875 509.993164062 32.39453125 514 c 1
 46.1513671875 555 l 1
189.2890625 208 m 1
 260.279296875 456 442.416992188 613.430664062 569.1484375 611 c 0
 628.810546875 609.85546875 656.37890625 586.135742188 655.577148438 523 c 0
 654.091796875 406.188476562 531.317382812 191.954101562 584.044921875 90 c 0
 602.901280803 56.1845703125 675.640622501 63 721.875976562 68 c 1
 726 29 l 1
 705.706376351 22.1015625 582.839201091 -23.4658203125 516.236328125 -24.3388671875 c 0
 461.271484375 -25.09375 433.5234375 5.5048828125 442.985351562 58 c 0
 453.990234375 119.057617188 531.077148438 260.501953125 537.764648438 426 c 0
 539.958984375 480.29296875 529.221679688 512.572265625 486.236328125 512.791992188 c 0
 380.799804688 513.331054688 235.090820312 291.228515625 219.764648438 184 c 9
 189.2890625 208 l 1
EndSplineSet
Validated: 524325
EndChar

StartChar: d
Encoding: 100 100 3
GlifName: uni0064
Width: 728
VWidth: 79
Flags: HMW
LayerCount: 2
Back
SplineSet
77.7314453125 231 m 0
 96.6826171875 373.767578125 181.33203125 501.470703125 389.090820312 576 c 0
 468.18359375 604.373046875 558.501953125 614 605.856445312 599 c 1
 553.33984375 491 l 1
 553.33984375 491 476.984519958 555.468542106 375.040039062 527 c 0
 273.124673727 498.53958857 219.057617188 370 200.608398438 270 c 0
 181.600585938 166.971679688 213.297851562 81.611328125 281.990234375 83 c 0
 397.845703125 85.3427734375 501.393554688 346 511.915039062 400 c 1
 524.685546875 350 l 1
 489.637695312 246 408.708007812 -18 225.708007812 -18 c 0
 110.708007812 -18 60.3427734375 100 77.7314453125 231 c 0
449.3515625 800 m 1
 571.999023438 808 716.877929688 850 716.877929688 850 c 1
 645.254882812 682 563.615234375 259 567.565429688 162 c 0
 570.919921875 79.6328125 610.934570312 65 701.05078125 77 c 1
 706.291992188 33 l 1
 649.708007812 7 561.239257812 -27 505.35546875 -15 c 0
 454.294921875 -4 453.813476562 67 459.456054688 99 c 0
 481.912109375 226.325195312 540.75390625 554.19921875 559.663085938 702 c 0
 565.950195312 749 505.243164062 742 433.06640625 741 c 1
 449.3515625 800 l 1
EndSplineSet
Fore
SplineSet
77.7314453125 231 m 0
 100.712858464 404.129172129 271.979017949 622.228629962 605.856445312 599 c 1
 553.33984375 471 l 1
 553.33984375 471 476.984519958 555.468542106 375.040039062 527 c 0
 273.124673727 498.53958857 219.057617188 370 200.608398438 270 c 0
 181.600585938 166.971679688 213.297851562 81.611328125 281.990234375 83 c 0
 397.845703125 85.3427734375 501.393554688 346 511.915039062 400 c 1
 524.685546875 350 l 1
 489.637695312 246 408.708007812 -18 225.708007812 -18 c 0
 100.708007812 -18 60.3427734375 100 77.7314453125 231 c 0
410.915039062 824 m 1
 546.694335938 827.5390625 686.189453125 877 688.20703125 877 c 1
 678.420898438 838.772460938 658.358398438 770.05859375 639.791992188 682 c 0
 624.573242188 609.8203125 584.052734375 417.426757812 574.890625 361 c 0
 565.844522636 305.288463053 556.771757196 245.507525827 561.422198204 170.995638945 c 0
 567.028166262 81.1737796758 617.8515625 58.130859375 719.639648438 70 c 1
 723.763671875 31 l 1
 704.383789062 24.08203125 599.845703125 -24.521484375 530 -23.55859375 c 0
 470.331054688 -22.736328125 452.507198324 15.9076718442 457.318359375 61 c 0
 462.691468723 111.359156011 484.018554688 211.096679688 496.338867188 270 c 0
 506.688476562 307.05078125 495.26171875 301.6484375 500.651367188 330 c 0
 510.458007812 381.587890625 545.96875 612.171875 547.772460938 675 c 0
 549.874023438 748.215820312 514.560546875 760.124023438 397.158203125 763 c 1
 410.915039062 824 l 1
EndSplineSet
Validated: 524325
EndChar

StartChar: h
Encoding: 104 104 4
GlifName: uni0068
Width: 697
VWidth: 79
Flags: HMW
LayerCount: 2
Back
SplineSet
37.6787109375 822 m 1
 173.458007812 825.5390625 311.953125 875 313.970703125 875 c 1
 299.958984375 820.265625 225.52734375 498.028320312 206.654296875 351 c 0
 203.551757812 326.828125 213.56640625 302.497070312 203.958984375 279 c 0
 168.794921875 193 175.396484375 110 177.763671875 10 c 5
 132.763671875 10 67.763671875 4 22.763671875 -10 c 5
 59.154296875 84 107.732421875 255.90625 123.415039062 348 c 0
 139.762695312 444 176.861328125 697.469726562 171.698242188 726 c 0
 164.331054688 766.709960938 105.569335938 759 23.921875 761 c 1
 37.6787109375 822 l 1
150.81640625 213 m 1
 241.806640625 481 403.944335938 613.430664062 530.67578125 611 c 0
 590.337890625 609.85546875 617.90625 586.135742188 617.103515625 523 c 0
 615.619140625 406.188476562 502.84375 171.954101562 545.572265625 90 c 0
 563.171875 56.2421875 630.522460938 63 673.403320312 68 c 1
 677.52734375 29 l 1
 658.201171875 22.1015625 544.19140625 -23.4658203125 480.763671875 -24.3388671875 c 0
 425.798828125 -25.09375 404.021484375 4.7734375 407.512695312 58 c 0
 411.517578125 119.057617188 492.604492188 270.501953125 499.291992188 426 c 0
 501.109375 480.306640625 490.749023438 512.590820312 447.763671875 512.791992188 c 0
 332.327148438 513.331054688 213.6171875 284.228515625 168.291992188 177 c 9
 150.81640625 213 l 1
EndSplineSet
Fore
SplineSet
40.1513671875 824 m 1
 175.930664062 827.5390625 315.42578125 877 317.443359375 877 c 1
 307.657226562 838.772460938 287.594726562 770.05859375 269.028320312 682 c 0
 253.809570312 609.8203125 203.2890625 347.426757812 194.126953125 291 c 0
 178.748046875 196.287109375 177.2890625 124.508789062 180.236328125 0 c 1
 135.236328125 0 70.236328125 -8 25.236328125 -13 c 1
 61.626953125 81 112.442382812 238.224609375 129.887695312 330 c 0
 139.694335938 381.587890625 175.205078125 612.171875 177.008789062 675 c 0
 179.110351562 748.215820312 143.796875 760.124023438 26.39453125 763 c 1
 40.1513671875 824 l 1
150.2890625 208 m 1
 221.279296875 456 403.416992188 613.430664062 530.1484375 611 c 0
 589.810546875 609.85546875 617.37890625 586.135742188 616.577148438 523 c 0
 615.399414062 430.400390625 538.001953125 276.578125 532.234375 166 c 0
 527.056640625 66.7041015625 582.4453125 57.4560546875 672.875976562 68 c 1
 677 29 l 1
 657.673828125 22.1015625 540.6640625 -23.4658203125 477.236328125 -24.3388671875 c 0
 422.271484375 -25.09375 394.5234375 5.5048828125 403.985351562 58 c 0
 414.990234375 119.057617188 492.077148438 260.501953125 498.764648438 426 c 0
 500.958984375 480.29296875 490.221679688 512.572265625 447.236328125 512.791992188 c 0
 341.799804688 513.331054688 196.090820312 291.228515625 180.764648438 184 c 9
 150.2890625 208 l 1
EndSplineSet
Validated: 524325
EndChar

StartChar: e
Encoding: 101 101 5
GlifName: uni0065
Width: 594
VWidth: 153
Flags: HMW
LayerCount: 2
Back
SplineSet
51.318359375 230 m 0
 80.4609375 469 257.095703125 596.091796875 385.3828125 611 c 0
 505.8515625 625 599.58203125 560.364257812 575.545898438 428 c 0
 557.788085938 330.211914062 446.7265625 278.8671875 330 262 c 0
 260.620117188 251.974609375 199.666992188 252.940429688 142.192382812 256 c 1
 150.65625 304 l 1
 150.65625 304 267.143554688 296.783203125 348 320 c 0
 407.715820312 337.146484375 462 387 463 451 c 24
 464 523 421.51171875 558.233398438 351.56640625 551 c 0
 276.8671875 543.275390625 204.462890625 462 180.01171875 349 c 0
 158.391601562 249.08203125 148.75390625 83 282.345703125 58 c 4
 381.995117188 39 513.985351562 127 515.985351562 127 c 5
 533.990234375 93 l 5
 511.993164062 66 404.642578125 -23.6279296875 277.296875 -26 c 4
 169.944335938 -28 26.34765625 26 51.318359375 230 c 0
EndSplineSet
Fore
SplineSet
51.318359375 230 m 0
 80.4609375 469 257.095703125 596.091796875 385.3828125 611 c 0
 505.8515625 625 599.58203125 560.364257812 575.545898438 428 c 0
 557.788085938 330.211914062 446.7265625 278.8671875 330 262 c 0
 260.620117188 251.974609375 199.666992188 252.940429688 142.192382812 256 c 1
 150.65625 304 l 1
 150.65625 304 277.143554688 296.783203125 358 320 c 0
 417.715820312 337.146484375 462 387 463 451 c 24
 464 523 421.51171875 558.233398438 351.56640625 551 c 0
 276.8671875 543.275390625 211.462890625 462 187.01171875 349 c 0
 165.391601562 249.08203125 158.75390625 83 292.345703125 58 c 0
 391.995117188 39 493.985351562 117 495.985351562 117 c 1
 513.990234375 83 l 1
 491.993164062 56 394.642578125 -23.6279296875 267.296875 -26 c 0
 159.944335938 -28 26.34765625 26 51.318359375 230 c 0
EndSplineSet
Validated: 524325
EndChar

StartChar: i
Encoding: 105 105 6
GlifName: uni0069
Width: 456
VWidth: 79
Flags: HMW
LayerCount: 2
Back
SplineSet
291.887695312 782 m 0
 299.29296875 824 338.23046875 852 379.23046875 852 c 0
 429.23046875 852 447.353515625 813 439.948242188 771 c 0
 432.541992188 729 393.60546875 701 352.60546875 701 c 0
 311.60546875 701 284.482421875 740 291.887695312 782 c 0
128.915039062 555 m 1
 265.280273438 558.499023438 402.254882812 608 405.20703125 608 c 1
 390.478515625 547.962890625 318.796875 315.663085938 306.4453125 171.267578125 c 4
 296.208984375 51.6044921875 355.774414062 58.1220703125 457.639648438 70 c 5
 461.763671875 31 l 5
 442.383789062 24.08203125 317.845703125 -24.521484375 248 -23.55859375 c 4
 188.331054688 -22.736328125 165.047851562 16.830078125 175.318359375 61 c 4
 192.32421875 134.138671875 262.180664062 279.380859375 261.317382812 417 c 0
 260.9375 477.512695312 220.119140625 491.0703125 115.158203125 494 c 1
 128.915039062 555 l 1
EndSplineSet
Fore
SplineSet
267.887695312 782 m 0
 275.29296875 824 314.23046875 852 355.23046875 852 c 0
 405.23046875 852 423.353515625 813 415.948242188 771 c 0
 408.541992188 729 369.60546875 701 328.60546875 701 c 0
 287.60546875 701 260.482421875 740 267.887695312 782 c 0
99.9150390625 555 m 1
 235.694335938 558.5390625 374.189453125 608 376.20703125 608 c 1
 362.1953125 553.265625 312.763671875 436.028320312 288.890625 289 c 0
 281.121731029 241.151819447 275.628465514 199.15621389 272.474497847 153.25847342 c 0
 270.582777712 52.3116040658 337.182192332 58.7526408091 433.639648438 70 c 1
 437.763671875 31 l 1
 418.383789062 24.08203125 293.845703125 -24.521484375 224 -23.55859375 c 0
 164.331054688 -22.736328125 141.047851562 16.830078125 151.318359375 61 c 0
 157.962890625 89.5771484375 172.676757812 129.163085938 188.086914062 175 c 1
 188.324570853 174.989608106 l 1
 200.796374365 212.133120727 213.574379788 256.031079434 219.651367188 288 c 0
 253.953125 468.452148438 249.73046875 509.993164062 86.158203125 514 c 1
 99.9150390625 555 l 1
EndSplineSet
Validated: 524321
EndChar

StartChar: s
Encoding: 115 115 7
GlifName: uni0073
Width: 504
VWidth: 153
Flags: HMW
LayerCount: 2
Back
SplineSet
47.234375 -2 m 1
 54.4052734375 33 62.5146484375 107 72.09375 167 c 1
 86.6572265625 132.356445312 142.233398438 33.7138671875 234.34765625 29 c 0
 295.731445312 25.8583984375 339.107421875 64.16015625 348.216796875 110 c 0
 374.844726562 244 139.591796875 237.981445312 143.646484375 391 c 0
 147.2578125 527.295898438 261.913085938 593.915039062 400 608.802734375 c 0
 442.291992188 613.362304688 481.0703125 607.392578125 520.26953125 603 c 1
 510.569335938 565 492.049804688 474 487.0546875 440 c 1
 449 494 402.700195312 561.184570312 325.861328125 554 c 0
 259.8515625 547.828125 245.279296875 481 253.16796875 436 c 0
 276.551757812 302.610351562 521.41015625 295.657226562 458 107.602539062 c 0
 431.58203125 29.25390625 326.84375 -15 217.591796875 -15 c 0
 104.591796875 -15 47.234375 -2 47.234375 -2 c 1
EndSplineSet
Fore
SplineSet
25.234375 9 m 1
 32.4052734375 42.3134765625 40.5146484375 109.891601562 50.09375 167 c 1
 68.3876765715 130.090044539 128.033973878 55.8182243621 241.34765625 53 c 0
 307.892789681 51.3968876045 340.434577104 83.4157560282 339.760742188 129 c 0
 338.285835599 230.2715944 101.623873593 245.114097544 120.646484375 421 c 0
 133.32421875 540.005087772 229.796875 595.669663909 368 609.802734375 c 0
 418.190429688 614.799804688 481.26953125 613 481.26953125 613 c 1
 482.694335938 609.95703125 484.155273438 606.609375 485.645507812 603 c 1
 476.3984375 561.8984375 465.345703125 489.801757812 458.0546875 436 c 1
 430 490 362.700195312 550.184570312 285.861328125 543 c 0
 219.8515625 536.51953125 206.940429688 484.982373047 216.16796875 438 c 0
 236.21725808 338.459545954 424.666174922 310.5473636 425.688476562 179 c 0
 426.691021153 55.5207357281 305.801323004 -15 175.591796875 -15 c 0
 94.3261352259 -15 49.3923896173 -5.5234375 33 -1.15625 c 1
 27.748046875 5 25.234375 9 25.234375 9 c 1
EndSplineSet
Validated: 524321
EndChar

StartChar: o
Encoding: 111 111 8
AltUni2: 0000ba.ffffffff.0
GlifName: o
Width: 620
VWidth: 153
Flags: HMW
LayerCount: 2
Back
SplineSet
30.3759765625 246 m 0
 3.0693359375 90.1376953125 71.35546875 -25 228.826171875 -28 c 0
 451.1171875 -32.2353515625 567.555664062 148.540039062 606.129882812 324 c 0
 662.629882812 581 477.271484375 613.396484375 413.44140625 613 c 0
 230.63671875 611.864257812 67.16796875 456 30.3759765625 246 c 0
162.072265625 358 m 0
 196.044921875 495 289.713867188 546.818359375 355.038085938 546 c 0
 467.1640625 544.595703125 526.228515625 415 493.545898438 258 c 0
 466.623046875 128 394.276367188 48.5078125 294.758789062 46 c 0
 178.458007812 43.0693359375 122.252929688 197.421875 162.072265625 358 c 0
EndSplineSet
Fore
SplineSet
57.3759765625 261 m 0
 30.0693359375 105.137695312 71.35546875 -25 228.826171875 -28 c 0
 451.1171875 -32.2353515625 561.6875 147.506835938 596.129882812 294 c 0
 653.579101562 538.345703125 517.271484375 613.396484375 423.44140625 613 c 0
 240.634765625 612.227539062 94.16796875 471 57.3759765625 261 c 0
167.072265625 369 m 0
 189.370117188 464.430664062 244.693359375 522.60546875 310.038085938 534 c 0
 450.168945312 558.435546875 516.228515625 395 483.545898438 238 c 0
 456.623046875 108 383.125 34.9599609375 294.758789062 46 c 0
 179.142578125 60.4443359375 133.484375 225.249023438 167.072265625 369 c 0
EndSplineSet
Validated: 4718633
EndChar

StartChar: b
Encoding: 98 98 9
GlifName: b
Width: 625
VWidth: 79
Flags: HMW
LayerCount: 2
Back
SplineSet
637.979492188 374.72265625 m 0
 615.77734375 159.009765625 452.685736895 -50.9822742016 87.9013671875 -17.64453125 c 1
 160.508789062 111.239257812 l 1
 160.508789062 111.239257812 242.578125 51.0732421875 323 51.93359375 c 0
 454.559570312 53.3408203125 498.0234375 219.526367188 515.309570312 331.59765625 c 0
 531.280273438 435.140625 515.29296875 520.069335938 446.604492188 521.655273438 c 0
 346.646484375 523.962890625 243.615234375 326.372070312 224.686523438 222.0859375 c 1
 205.720703125 262.369140625 l 5
 228.586914062 366.780273438 326.963867188 609.474609375 489.893554688 614.266601562 c 0
 604.84375 617.647460938 651.508789062 506.176757812 637.979492188 374.72265625 c 0
111.3515625 800 m 1
 193.999023438 798 368.877929688 850 368.877929688 850 c 1
 297.254882812 682 227.451621857 258.75955775 219.565429688 162 c 0
 212.820842751 79.2473564981 208.90625 36.232421875 293.05078125 25 c 1
 368.291992188 33 l 1
 338.927734375 6.607421875 151.100520748 -27.113508142 87.35546875 -15 c 1
 126.73709013 160.403156671 184.934165684 493.077383542 211.663085938 702 c 0
 217.950195312 749 167.243164062 742 95.06640625 741 c 1
 111.3515625 800 l 1
EndSplineSet
Fore
SplineSet
99 -12 m 1
 142.904296875 -6.98828125 174.766311838 0 219 0 c 1
 216.052734375 124.508789062 217.51192518 196.287075856 232.890625 291 c 0
 233.570128693 305.558047002 235.041004689 333.825957286 236.924804688 369 c 1
 244.30239614 392.5796419 255.372402971 418.599362892 261.64378119 446.999997048 c 0
 281.648924873 537.595516427 299.131972688 640.926400254 307.791992188 682 c 0
 326.358398438 770.05859375 346.420898438 838.772460938 356.20703125 877 c 1
 354.189453125 877 214.694335938 827.5390625 78.9150390625 824 c 1
 65.158203125 763 l 1
 182.560546875 760.124023438 217.874388332 748.215809837 215.772460938 675 c 0
 213.96875 612.171875 178.486005318 381.582560544 168.651367188 330 c 0
 150.270476797 239.307650336 117.804698231 87.8908554572 90 -5 c 1
 99.9013671875 -13.64453125 l 1
 464.685546875 -46.982421875 615.778245082 159.009672858 637.979492188 374.72265625 c 0
 651.508789062 506.176757812 624.84640103 617.539931539 489.893554688 614.266601562 c 0
 326.371125892 610.300306056 225.667379915 373.813183748 204.720703125 272.369140625 c 1
 218.686523438 232.0859375 l 1
 238.127010263 332.890868456 343.947117743 524.025513512 446.604492188 521.655273438 c 0
 501.818818111 520.510843177 526.520549986 470.822126868 527.767578125 408 c 0
 530.648756237 262.853526402 464.375145137 63.0761170994 323 61.93359375 c 0
 212.578487146 61.027954529 160.508789062 121.239257812 160.508789062 121.239257812 c 1
 99 -12 l 1
EndSplineSet
Validated: 524325
EndChar

StartChar: r
Encoding: 46 46 10
GlifName: period
Width: 204
VWidth: 79
Flags: HMW
LayerCount: 2
Back
SplineSet
461 429 m 1053
547.62890625 606.931640625 m 5,0,1
 560.979304676 545.140392989 555.783202328 486.432928999 547.3359375 427.185546875 c 5,11,12
 461 429 l 5,0,0
 453.53125 451.228515625 446.063476562 473.458007812 435 490.4765625 c 5,0,0
 306.106445312 489.979492188 258.503299742 424.487976481 246 397 c 5,15,-1
 241 444 l 5,16,17
 284.417257879 513.413357003 404.184570312 607.883789062 501 609.767578125 c 4,0,0
 529.2578125 610.317382812 547.62890625 606.931640625 547.62890625 606.931640625 c 5,0,1
52 63 m 5,22,23
 63.8515625 61.5966796875 74.8759765625 60.8740234375 85.05859375 60.8740234375 c 4,24,25
 140.174804688 60.8740234375 170.624023438 82.0439453125 174 131 c 5,26,-1
 288 150 l 5,27,28
 287.791992188 146.228515625 287.69140625 142.60546875 287.69140625 139.124023438 c 4,29,30
 287.69140625 62.9560546875 356.818359375 48.7841796875 404.6640625 48.7841796875 c 4,31,32
 407.716796875 48.7841796875 410.525390625 48.8828125 413 49 c 5,33,-1
 423 1 l 5,34,-1
 60 1 l 5,35,-1
 52 63 l 5,22,23
49 595 m 5,50,51
 64.4892578125 593.95703125 80.77734375 593.513671875 97.2822265625 593.513671875 c 4,52,53
 191.596679688 593.513671875 293 608 293 608 c 5,54,55
 293 608 276 486 270 460 c 5,56,57
 293 468 l 5,60,61
 290.176757812 402.124023438 286.036132812 348.6171875 286.036132812 279 c 4,64,65
 286.036132812 192.529296875 286.936523438 99.921875 300 0 c 5,66,-1
 165 0 l 5,67,68
 175.778320312 143.716796875 181.91015625 285.884765625 181.91015625 377.525390625 c 4,69,70
 181.91015625 413.413085938 180.969726562 441.552734375 179 459 c 4,71,72
 174 504 138 532 56 534 c 5,73,-1
 49 595 l 5,50,51
EndSplineSet
Fore
SplineSet
35.3173828125 51.4697265625 m 0
 43.0029296875 95.052734375 82.5712890625 122.990234375 125.036132812 122.990234375 c 0
 176.44140625 122.990234375 195.837890625 87.23046875 188.153320312 43.6474609375 c 0
 180.46875 0.0654296875 140.704101562 -28.990234375 98.23828125 -28.990234375 c 0
 55.7734375 -28.990234375 27.6328125 7.8876953125 35.3173828125 51.4697265625 c 0
EndSplineSet
Validated: 2621473
EndChar

StartChar: t
Encoding: 116 116 11
GlifName: t
Width: 402
VWidth: 79
Flags: HMW
LayerCount: 2
Back
Fore
SplineSet
180 585 m 1
 372 585 l 1
 363 523 l 1
 180 523 l 1
 180 585 l 1
38.7568359375 585 m 1
 93.42578125 585.424804688 118.698169679 583.553122801 165 585.3828125 c 0
 177.119068116 585.861716551 227.342773438 726.809570312 238 763.307617188 c 1
 288.78515625 775.942382812 323.052734375 788 324.048828125 788 c 1
 317.439453125 763.8046875 263.633517299 542.581752867 249.369140625 490 c 0
 221.532931361 387.389370054 190.739257812 264.858398438 181.114257812 164.201171875 c 0
 178.40625 123.455078125 182.672851562 78.9599609375 217.841796875 78.45703125 c 0
 250.98828125 77.9833984375 288.502929688 103.391601562 310.481445312 140 c 1
 321.60546875 110 l 1
 279.279296875 32.1015625 195.26953125 -23.4658203125 111.841796875 -24.3388671875 c 0
 56.875 -24.9140625 39.12890625 5.5048828125 48.5908203125 58 c 0
 56.7119140625 103.056640625 98.0947265625 197.333984375 121.915039062 306.138671875 c 0
 128.69921875 347.377929688 142.56640625 444.217773438 146.645507812 473.836914062 c 0
 154.72265625 525.495117188 128.201171875 537.309570312 30 525 c 1
 38.7568359375 585 l 1
EndSplineSet
Validated: 524325
EndChar

StartChar: p
Encoding: 112 112 12
GlifName: p
Width: 709
VWidth: 79
Flags: HMW
LayerCount: 2
Back
Fore
SplineSet
116.03515625 -17 m 1
 165.551757812 103 l 1
 165.551757812 103 248.034508086 44.3475374876 358.8515625 69 c 0
 468.210664073 93.328125 534.887698925 218.077468585 548.283203125 315 c 0
 562.593167241 418.5390625 554.115129025 510.314090248 471.901367188 509 c 0
 334.436510379 506.80278601 218.092730277 246 205.9765625 192 c 1
 175.206054688 191 l 1
 215.115734696 309.092140921 331.185080753 610 528.18359375 610 c 0
 629.211423163 610 671.997307696 526.60371317 670.798828125 424 c 0
 668.328610939 212.520837825 474.192064274 -41.9903333949 116.03515625 -17 c 1
50.9150390625 555 m 1
 186.694335937 558.5390625 325.189453125 608 327.20703125 608 c 1
 318.98983625 575.900937737 305.655194748 521.309501592 283.106474439 454.000007622 c 0
 271.204888781 418.472949009 252.102155261 382.478497975 235.966796875 343 c 1
 241.268187926 341.370590777 246.599518524 339.703006421 251.931127584 338.000009311 c 1
 247.904611922 322.092749482 244.732240962 305.517302237 239.890625 289 c 0
 218.532444263 216.135995655 119.621600202 -7.73068678515 134.291992188 -160.909179688 c 0
 142.649842553 -248.176304127 189.829522366 -252.725399289 290.639648438 -241 c 1
 299.763671875 -283 l 1
 281.290039062 -296.481945194 176.652571521 -344.475618101 96 -343.55859375 c 0
 41.867377966 -342.943102741 14.9449918907 -322.677953098 10.1630859375 -266 c 0
 2.09357868863 -170.35546875 120.979766423 141.384863434 150.651367188 288 c 0
 187.161132812 468.404296875 187.485351562 509.993164062 37.158203125 514 c 1
 50.9150390625 555 l 1
EndSplineSet
Validated: 524325
EndChar

StartChar: v
Encoding: 118 118 13
GlifName: v
Width: 645
VWidth: 79
Flags: HMW
LayerCount: 2
Back
SplineSet
662 538 m 1
 592.022460938 535.735351562 597.107421875 508.028320312 576.810546875 455.861328125 c 0
 508 279 416.959960938 88.9033203125 379.661132812 8.6162109375 c 9
 255.399414062 -24.650390625 l 1
 216.270507812 86.927734375 183.459960938 225.581054688 103.497070312 462.43359375 c 1
 84.3037109375 526.984375 68.650390625 532.875976562 12 532 c 1
 -2 596 l 1
 112 590.78125 206 592.904296875 320 596 c 1
 334 542 l 1
 258 536 205 525 220 460 c 1
 219.7265625 459.962890625 l 1
 247.463867188 361.939453125 288.78125 252.842773438 313.678710938 158 c 1
 316.244140625 135.912109375 333 45 330.991210938 51 c 5
 360.858398438 122.987304688 438.057617188 302.979492188 501.733398438 468.791992188 c 1
 519.560546875 526.806640625 457.559570312 535.975585938 390 533 c 1
 381 596 l 1
 477.666992188 590.463867188 554.333007812 592.002929688 651 596 c 1
 662 538 l 1
EndSplineSet
Fore
SplineSet
107 499 m 1049
-7.9091796875 573 m 1,0,1
 75.208984375 578 135.561523438 585 229.090820312 616 c 1,2,-1
 232.540039062 558.078125 253 421 271.736328125 297 c 0,7,8
 282.897460938 223.1328125 309.653320312 104.299804688 333 51 c 0,0,0
 340.41796875 34.0654296875 304.166992188 78 304.166992188 78 c 1,9,10
 390.180664062 182.400390625 489.031552329 325.180866493 513 472 c 0,0,0
 521.615536705 524.774616493 493.990234375 545.329101562 416 544 c 1,0,0
 420.090820312 576 l 1,14,15
 453.391601562 599.602539062 521.739242166 616.423176913 551 615.763671875 c 0,0,0
 616.03515625 614.297851562 626.939280565 582.861426867 624.090820312 556 c 0,16,-1
 605.110834573 377.015758148 484.543945312 203.794921875 319.294921875 -4 c 1,21,22
 289.765625 -7 238.178710938 -12 202.415039062 -22 c 1,23,24
 209.172851562 184.998046875 174.456432046 420.05049753 107 499 c 0,0,0
 79.4583851706 531.23409128 29.546875 533.006835938 -14.1357421875 530 c 1,27,-1
 -7.9091796875 573 l 1,0,1
EndSplineSet
Validated: 524325
EndChar

StartChar: m
Encoding: 109 109 14
GlifName: m
Width: 1067
VWidth: 79
Flags: HMW
LayerCount: 2
Back
SplineSet
45.7568359375 555 m 1
 181.536132812 558.5390625 320.03125 608 322.048828125 608 c 1
 308.037109375 553.265625 273.60546875 498.028320312 254.732421875 351 c 0
 251.629882812 326.828125 251.64453125 302.497070312 242.037109375 279 c 0
 206.874023438 193 223.474609375 93 225.841796875 -7 c 1
 180.841796875 -7 105.841796875 -15 60.841796875 -20 c 1
 97.232421875 74 139.271484375 196 155.493164062 288 c 0
 161.840820312 324 175.939453125 430.469726562 170.776367188 459 c 0
 163.409179688 499.709960938 113.647460938 492 32 494 c 1
 45.7568359375 555 l 1
560.89453125 213 m 1
 651.884765625 481 814.022460938 613.430664062 940.75390625 611 c 0
 1000.41601562 609.85546875 1027.984375 586.135742188 1027.18261719 523 c 0
 1025.69726562 406.188476562 912.922851562 171.954101562 955.650390625 90 c 0
 973.25 56.2421875 1040.60058594 63 1083.48144531 68 c 1
 1087.60546875 29 l 1
 1068.27929688 22.1015625 954.26953125 -23.4658203125 890.841796875 -24.3388671875 c 0
 835.876953125 -25.09375 814.099609375 4.7734375 817.590820312 58 c 0
 821.595703125 119.057617188 902.682617188 270.501953125 909.370117188 426 c 0
 911.1875 480.306640625 900.827148438 512.590820312 857.841796875 512.791992188 c 0
 742.405273438 513.331054688 623.696289062 284.228515625 578.370117188 177 c 9
 560.89453125 213 l 1
200.89453125 213 m 1
 291.884765625 481 454.022460938 613.430664062 580.75390625 611 c 0
 640.416015625 609.85546875 677.590820312 585.27734375 667.182617188 523 c 0
 644.84765625 389.3671875 599.436523438 213.7109375 623.481445312 0 c 1
 559.727539062 0.9287109375 508.603515625 -2.08984375 447.841796875 -11.3388671875 c 1
 494.061523438 108.877929688 540.661132812 223.49609375 549.370117188 426 c 0
 551.1875 480.306640625 540.827148438 512.590820312 497.841796875 512.791992188 c 0
 382.405273438 513.331054688 263.696289062 284.228515625 218.370117188 177 c 9
 200.89453125 213 l 1
EndSplineSet
Fore
SplineSet
526.2890625 208 m 1
 597.279296875 456 773.416992188 613.430664062 900.1484375 611 c 0
 959.810546875 609.85546875 987.37890625 586.135742188 986.577148438 523 c 0
 985.091796875 406.188476562 862.317382812 191.954101562 915.044921875 90 c 0
 932.533203125 56.1845703125 999.995117188 63 1042.87597656 68 c 1
 1047 29 l 1
 1027.67382812 22.1015625 910.6640625 -23.4658203125 847.236328125 -24.3388671875 c 0
 792.271484375 -25.09375 764.5234375 5.5048828125 773.985351562 58 c 0
 784.990234375 119.057617188 862.077148438 260.501953125 868.764648438 426 c 0
 870.958984375 480.29296875 860.221679688 512.572265625 817.236328125 512.791992188 c 0
 711.799804688 513.331054688 572.090820312 291.228515625 556.764648438 184 c 9
 526.2890625 208 l 1
191.2890625 208 m 1
 264.279296875 451 414.416992188 613.430664062 541.1484375 611 c 0
 600.810546875 609.85546875 628.37890625 586.135742188 627.577148438 523 c 0
 626.091796875 406.188476562 567.840820312 317.99609375 559.044921875 231 c 0
 556.180664062 202.670898438 558.932617188 84.287109375 568 -2 c 1
 414.985351562 -11 l 17
 425.990234375 60.0576171875 503.077148438 260.501953125 509.764648438 426 c 0
 511.958984375 480.29296875 501.221679688 512.572265625 458.236328125 512.791992188 c 0
 352.799804688 513.331054688 237.090820312 291.228515625 221.764648438 184 c 9
 191.2890625 208 l 1
46.1513671875 555 m 1
 181.930664062 558.5390625 320.42578125 608 322.443359375 608 c 1
 308.431640625 553.265625 259 436.028320312 235.126953125 289 c 0
 219.748046875 194.287109375 213.2890625 122.508789062 216.236328125 -2 c 1
 171.236328125 -2 109.236328125 -6 61.236328125 -15 c 1
 97.626953125 79 148.442382812 196.224609375 165.887695312 288 c 0
 200.189453125 468.452148438 195.966796875 489.993164062 32.39453125 494 c 1
 46.1513671875 555 l 1
EndSplineSet
Validated: 524325
EndChar

StartChar: g
Encoding: 103 103 15
GlifName: g
Width: 769
VWidth: 153
Flags: HMW
LayerCount: 2
Back
SplineSet
21 -172 m 4
 6 -121 28 1 221 66 c 5
 285 48 l 21
 242 38 149 -19 149 -102 c 4
 149 -151 177 -215 313 -215 c 4
 414 -215 522 -151 522 -79 c 4
 522 70 135 50 59 47 c 5
 45 68 45 96 51 119 c 5
 81 154 136 201 193 240 c 5
 243 226 l 5
 212 203 142 123 202 130 c 5
 459 150 638 111 637 -51 c 4
 636 -194 424 -282.979492188 272 -284 c 4
 123 -285 41 -240 21 -172 c 4
57 370 m 4
 56 511 192 611 334 611 c 4
 449 611 561 571 561 453 c 4
 561 301 427 217 291 217 c 4
 146 217 58 258 57 370 c 4
171 404 m 4
 171 312 223 273 308 274 c 4
 392 275 436 347 436 426 c 4
 436 499 397 558 309 558 c 4
 241 558 171 499 171 404 c 4
507 520 m 21
 537 522 617 561 719 621 c 5
 725 584 726 506 722 476 c 5
 666 478 600 478 549 478 c 13
 507 520 l 21
EndSplineSet
Fore
SplineSet
6.8583984375 -172 m 0
 -4.80354879929 -69.7373046875 108.870462234 57 258.044921875 92 c 1
 311.30859375 86 l 1
 200.73179818 54.9211105123 113.692845326 -28.0322179867 117 -106.26953125 c 0
 120.268538222 -183.593295628 209.711106764 -227.786983094 322.034179688 -207 c 0
 404.135516752 -191.805979207 464.749232645 -137.57162913 473.329101562 -65 c 0
 490.80159025 82.7886178862 255.073151558 109.569105691 48.431640625 57 c 1
 42.5185546875 74 44.2197265625 86 45.0439453125 109 c 1
 79.341796875 144 150.112304688 201 211.901367188 240 c 1
 260.181640625 226 l 1
 226.357421875 203 156.53515625 133 167.39453125 130 c 1
 415.173161905 179.719101124 623.175915258 112.111345625 591.766601562 -47 c 0
 564.614266136 -184.546610169 388.317509336 -275.927075957 205.333984375 -274 c 0
 75.451171875 -272.632149833 12.6372153576 -224.775018753 6.8583984375 -172 c 0
121.86328125 370 m 0
 141.3515625 510.596679688 296.454101562 611 438.454101562 611 c 0
 523.454101562 611 630.542171255 571.000097922 616.053710938 453 c 0
 597.390625 301 443.077148438 207 307.077148438 207 c 0
 162.077148438 207 109.111051735 278.00003831 121.86328125 370 c 0
227.037109375 434 m 0
 211.516947395 342.811495359 279.24959883 263.134516232 368.075195312 264 c 0
 458.879711027 264.884765625 508.474892974 347.586164568 504.739257812 426 c 0
 501.695678994 489.887044159 451.946289062 548 363.946289062 548 c 0
 295.946289062 548 237.952314224 498.132140456 227.037109375 434 c 0
570.280273438 520 m 1
 600.526367188 522 684.086914062 551 793.454101562 611 c 1
 794.911132812 574 787.561523438 506 779.877929688 476 c 1
 724.124023438 488 628.124023438 498 577.124023438 498 c 1
 570.280273438 520 l 1
EndSplineSet
Validated: 524325
EndChar

StartChar: H
Encoding: 72 72 16
GlifName: H_
Width: 902
VWidth: 79
Flags: HMW
LayerCount: 2
Back
Fore
SplineSet
52.755859375 61 m 1
 128.05078125 57 163.693359375 89 179.157226562 137 c 1
 299.744140625 146 l 1
 280.993164062 51 356.81640625 50 374.993164062 51 c 1
 376 0 l 1
 52 0 l 1
 52.755859375 61 l 1
202.061523438 800 m 1
 313.651367188 792 393.1796875 795 502.061523438 800 c 1
 503.069335938 749 l 1
 485.245117188 750 416.069335938 749 401.317382812 654 c 1
 276.905273438 663 l 1
 278.368164062 711 274.010742188 743 197.305664062 739 c 1
 202.061523438 800 l 1
127 0 m 1
 127 0 160.87265647 71.3997038679 177.98046875 136 c 0
 220.723242408 297.399703868 268.798828125 583 291.418945312 768 c 1
 438.827148438 793 l 1
 378.561523438 593 306.67578125 208 299.567382812 145 c 0
 294.80859375 101 264.639648438 49 346.639648438 49 c 1
 322.176757812 1 l 1
 127 0 l 1
258.711914062 367 m 1
 270.349609375 433 l 1
 679.526367188 434 l 1
 824.759765625 441 l 1
 812.241210938 370 l 1
 258.711914062 367 l 1
547.2265625 58 m 1
 622.521484375 54 664.221679688 92 676.685546875 140 c 1
 794.509765625 139 l 1
 775.639648438 49 841.639648438 49 860.81640625 50 c 1
 862 0 l 1
 547 0 l 1
 547.2265625 58 l 1
693.061523438 800 m 1
 807.297851562 790 890.00390625 794 997.061523438 800 c 1
 993.069335938 749 l 1
 975.245117188 750 915.069335938 749 894.317382812 654 c 1
 771.905273438 663 l 1
 773.368164062 711 767.010742188 743 690.305664062 739 c 1
 693.061523438 800 l 1
624 0 m 1
 624 0 657.87265647 71.3997038679 674.98046875 136 c 0
 717.723242408 297.399703868 762.798828125 583 785.418945312 768 c 1
 931.827148438 793 l 1
 871.561523438 593 803.67578125 208 795.567382812 145 c 0
 789.80859375 101 760.639648438 49 842.639648438 49 c 1
 818.176757812 1 l 1
 624 0 l 1
EndSplineSet
Validated: 524325
EndChar

StartChar: A
Encoding: 65 65 17
GlifName: A_
Width: 863
VWidth: 79
Flags: HMW
LayerCount: 2
Back
Fore
SplineSet
52.755859375 61 m 1
 132.168945312 52 160.1640625 86 187.98046875 136 c 0
 323.475585938 377 428.798828125 583 516.418945312 768 c 1
 556.477539062 774 606.592773438 786 647.885742188 799 c 1
 671.856445312 589 710.705078125 418 763.44921875 150 c 0
 772.337890625 104 782.58203125 43 852.698242188 55 c 1
 853 0 l 1
 741 0 629 0 517 0 c 1
 518.28515625 64 l 1
 587.345703125 53 640.4609375 65 634.864257812 124 c 0
 622.905273438 249 574.825195312 396 557.392578125 541 c 0
 556.26953125 580 550.967773438 635 550.197265625 676 c 1
 453.521484375 468 316.028320312 210 289.567382812 145 c 0
 251.639648438 49 326.81640625 50 374.993164062 51 c 1
 376 0 l 1
 268 0 160 0 52 0 c 1
 52.755859375 61 l 1
339.30859375 308 m 1
 349.536132812 366 l 1
 673.946289062 374 l 1
 662.837890625 311 l 1
 339.30859375 308 l 1
EndSplineSet
Validated: 524325
EndChar

StartChar: B
Encoding: 66 66 18
GlifName: B_
Width: 749
VWidth: 79
Flags: HMW
LayerCount: 2
Back
Fore
SplineSet
157.708984375 798 m 1
 343.592773438 786 387.590820312 803 537.590820312 803 c 0
 679.912699086 803 758.742359197 737.001982186 731.969726562 618 c 0
 711.16231683 524 597.778373049 417 453.646484375 412 c 1
 550.0546875 437 l 1
 675.082832325 397.352422907 713.470264882 300.321352989 695.028320312 187 c 1
 659.173828125 4.14285714286 451 -13 310 -13 c 0
 244.191140776 -13 104.421602787 -3 33 17 c 1
 33.755859375 78 l 1
 117.240231713 71.6363636364 155.292079045 88.2439899928 167.393554688 120 c 0
 213.28767811 312.255489022 246.139869093 424.003663698 257.733398438 568 c 0
 265.58071423 663.943925234 257.843685038 756.579439252 156.600585938 745 c 1
 157.708984375 798 l 1
300.123046875 375 m 1
 286.748605603 269.841269841 278.80180661 187.731200963 274.688476562 110 c 0
 271.460937501 52 315.757928115 47.531724249 368.755859375 48 c 0
 481.932617188 48.9367088608 567.083967674 102.312552847 584.615234375 196 c 1
 599.956054688 298.628742515 542.547402457 390.105153179 438.0625 393 c 0
 391.891055847 394.636363636 339.188519199 386.454545455 300.123046875 375 c 1
315.346679688 450 m 1
 535.720624898 426 610.238355697 529.887172955 623.50390625 587 c 0
 647.673958618 677 586.186104022 745.305341976 486.715820312 747 c 0
 436.569511265 748.588235294 397.625248367 734.294117647 370.71875 720 c 1
 349.141601562 645.75 333.626953125 544.5 315.346679688 450 c 1
EndSplineSet
EndChar

StartChar: W
Encoding: 87 87 19
GlifName: W_
Width: 1231
VWidth: 79
Flags: HMW
LayerCount: 2
Back
Fore
SplineSet
126.061523438 800 m 1
 241.356445312 796 372.827148438 793 462.061523438 800 c 1
 460.776367188 736 l 1
 391.715820312 747 338.600585938 735 344.197265625 676 c 0
 356.15625 551 398.241210938 370 415.673828125 225 c 0
 417.854492188 192 422.803710938 135 424.6328125 100 c 1
 520.07421875 301 663.385742188 592 689.494140625 655 c 1
 791.081054688 664 l 1
 656.8203125 430 545.149414062 188 458.41015625 8 c 1
 418.352539062 2 368.236328125 -10 326.944335938 -23 c 1
 301.915039062 181 269.767578125 390 215.612304688 650 c 0
 206.723632812 696 194.892578125 748 124.776367188 736 c 1
 126.061523438 800 l 1
600.061523438 800 m 1
 712.061523438 800 824.061523438 800 936.061523438 800 c 1
 934.776367188 736 l 1
 865.715820312 747 812.600585938 735 818.197265625 676 c 0
 830.15625 551 864.241210938 370 881.673828125 225 c 0
 883.854492188 192 888.803710938 135 890.6328125 100 c 1
 986.07421875 301 1128.38574219 592 1154.49414062 655 c 0
 1192.421875 751 1117.24511719 750 1069.06933594 749 c 1
 1068.06152344 800 l 1
 1176.06152344 800 1284.06152344 800 1392.06152344 800 c 1
 1391.30566406 739 l 1
 1311.89257812 748 1283.89746094 714 1256.08105469 664 c 0
 1121.8203125 430 1011.14941406 188 924.41015625 8 c 1
 884.352539062 2 834.236328125 -10 792.944335938 -23 c 1
 767.915039062 181 743.767578125 390 689.612304688 650 c 0
 680.723632812 696 670.479492188 757 600.36328125 745 c 1
 600.061523438 800 l 1
EndSplineSet
Validated: 524325
EndChar

StartChar: c
Encoding: 99 99 20
GlifName: c
Width: 615
VWidth: 153
Flags: HMW
LayerCount: 2
Back
SplineSet
65.5556640625 230 m 0
 95.236328125 404 234.443359375 598 477.443359375 598 c 0
 575.443359375 598 623.330078125 569 623.330078125 569 c 1
 618.629882812 531 606.287109375 461 591.3515625 416 c 1
 532.41015625 422 l 1
 518.9921875 465 506.869140625 504 463.864257812 538 c 5
 534.334960938 535 l 1
 500.874023438 470 490.158203125 534 397.982421875 533 c 0
 318.805664062 532 234.931640625 476 206.306640625 325 c 0
 182.618164062 202 201.28515625 64 334.932617188 62 c 0
 399.755859375 61 463.1640625 86 506.3359375 121 c 1
 531.340820312 87 l 1
 468.055664062 23 387.35546875 -15 283.35546875 -15 c 0
 134.35546875 -15 38.1669921875 69 65.5556640625 230 c 0
EndSplineSet
Fore
SplineSet
72.318359375 230 m 0
 96.4016771283 452.690301939 247.809021258 546.835000681 348.3828125 585 c 1
 436.022460938 612.864257812 528.657226562 612.272460938 566.545898438 610 c 1
 569.065429688 606.248046875 571.501953125 602.583007812 573.858398438 599 c 1
 555.642578125 518.833984375 550.366210938 477.553710938 544 433 c 1
 506.2421875 501 430.084960938 557.008789062 361.56640625 535 c 1
 293.030934192 517.759136653 228.852362865 454.180217161 207.01171875 351 c 0
 185.391601562 251.08203125 185.83984375 87.455078125 319.345703125 62 c 0
 416.548407649 43.6440677966 516.034457913 119 517.985351562 119 c 1
 534.990234375 83 l 1
 512.993164062 56 415.642578125 -23.6279296875 288.296875 -26 c 0
 180.944335938 -28 50.203125 25.6708984375 72.318359375 230 c 0
EndSplineSet
Validated: 524321
EndChar

StartChar: w
Encoding: 119 119 21
GlifName: w
Width: 1025
VWidth: 79
Flags: HMW
LayerCount: 2
Back
Fore
SplineSet
622.901367188 521 m 1
 631.336914062 453.4921875 658.938874081 381.695586607 671.736328125 297 c 0
 682.897460938 223.1328125 709.653320312 104.299804688 733 51 c 0
 740.41796875 34.0654296875 704.166992188 78 704.166992188 78 c 1
 790.180664062 182.400390625 869.031552329 325.180866493 893 472 c 0
 901.615536705 524.774616493 873.990234375 545.329101562 796 544 c 1
 800.090820312 576 l 1
 833.391601562 599.602539062 901.739257812 616.422851562 931 615.763671875 c 0
 996.03515625 614.297851562 1006.93924019 582.861445668 1004.09082031 556 c 0
 985.111115192 377.015742542 884.543945312 203.794921875 719.294921875 -4 c 1
 689.765625 -7 638.178710938 -12 602.415039062 -22 c 1
 608.326524921 159.074279107 581.425601335 320.672760931 530.381835938 422 c 0
 523.074038835 436.506745307 535.272460938 438.958007812 527 449 c 1
 622.901367188 521 l 1
524 449 m 1049
137 499 m 1049
32.0908203125 563 m 1
 115.208984375 568 165.561523438 585 259.090820312 616 c 1
 262.540039062 558.078125 283 421 301.736328125 297 c 0
 312.897460938 223.1328125 339.653320312 104.299804688 363 51 c 0
 370.41796875 34.0654296875 334.166992188 78 334.166992188 78 c 1
 420.180664062 182.400390625 499.031552329 285.180866493 523 432 c 0
 531.615536705 484.774616493 513.990234375 495.329101562 436 494 c 1
 440.090820312 526 l 1
 473.391601562 549.602539062 521.739257812 566.422851562 551 565.763671875 c 0
 616.03515625 564.297851562 626.939240195 532.861445667 624.090820312 506 c 0
 605.111115195 327.015742541 514.543945312 203.794921875 349.294921875 -4 c 1
 319.765625 -7 268.178710938 -12 232.415039062 -22 c 1
 239.172851562 184.998046875 204.456432046 420.05049753 137 499 c 0
 109.458385171 531.23409128 69.546875 523.006835938 25.8642578125 520 c 1
 32.0908203125 563 l 1
134 499 m 1049
EndSplineSet
Validated: 524325
EndChar

StartChar: V
Encoding: 86 86 22
GlifName: V_
Width: 779
VWidth: 79
Flags: HMW
LayerCount: 2
Back
SplineSet
846.319335938 759.60546875 m 5
 750.118164062 756.4921875 737.75390625 709.79296875 708.333984375 638.686523438 c 4
 607.73828125 395.549804688 492.083007812 92.47265625 440.807617188 -17.900390625 c 13
 305.850585938 -35.2626953125 l 5
 262.05859375 118.126953125 166.208007812 445.11328125 95.28125 640.72265625 c 5
 65.8955078125 722.461914062 19.380859375 750.809570312 -44.751953125 749.60546875 c 5
 -55.7490234375 819.33984375 l 5
 100.969726562 810.166015625 230.194335938 812.083984375 366.913085938 819.33984375 c 5
 380.16015625 755.104492188 l 5
 275.680664062 746.856445312 215.693359375 731.734375 236.314453125 642.375976562 c 5
 235.938476562 642.325195312 l 5
 272.0703125 507.569335938 310.123046875 375.205078125 355.350585938 244.821289062 c 5
 369.875 196.584960938 390.53515625 66.734375 387.7734375 74.982421875 c 5
 430.33203125 173.946289062 539.463867188 422.768554688 613.000976562 650.715820312 c 5
 635.381835938 730.470703125 565.267578125 756.823242188 472.391601562 752.731445312 c 5
 460.018554688 819.33984375 l 5
 592.91015625 811.728515625 698.3046875 813.844726562 831.196289062 819.33984375 c 5
 846.319335938 759.60546875 l 5
EndSplineSet
Fore
SplineSet
118.885742188 799 m 1
 230.00390625 794 371.827148438 793 454.885742188 799 c 1
 453.600585938 735 l 1
 384.540039062 746 331.423828125 734 337.020507812 675 c 0
 350.038085938 556 393.709960938 384 412.200195312 245 c 1
 413.323242188 206 416.862304688 141 417.6328125 100 c 1
 513.07421875 301 656.208984375 591 682.317382812 654 c 0
 720.245117188 750 645.069335938 749 596.892578125 748 c 1
 595.885742188 799 l 1
 706.1796875 795 815.297851562 790 919.885742188 799 c 1
 919.12890625 738 l 1
 839.715820312 747 811.720703125 713 783.905273438 663 c 0
 649.64453125 429 538.149414062 188 451.41015625 8 c 1
 411.352539062 2 361.236328125 -10 319.944335938 -23 c 1
 295.973632812 187 264.70703125 401 211.962890625 669 c 0
 201.310546875 705 188.950195312 754 119.1875 744 c 1
 118.885742188 799 l 1
EndSplineSet
Validated: 524321
EndChar

StartChar: C
Encoding: 67 67 23
GlifName: C_
Width: 748
VWidth: 79
Flags: HMW
LayerCount: 2
Back
Fore
SplineSet
109.721679688 299 m 0
 149.6875 537 332.4140625 802 664.4140625 802 c 0
 825.4140625 802 888.06640625 766 888.06640625 766 c 1
 882.07421875 715 855.151367188 585 837.745117188 543 c 1
 779.274414062 546 l 1
 762.791015625 634 699.892578125 748 655.126953125 755 c 1
 672.830078125 776 847.071289062 732 777.3203125 637 c 1
 761.025390625 641 709.71875 730 586.71875 730 c 0
 428.71875 730 296.856445312 589 259.296875 393 c 0
 226.849609375 226 261.811523438 84 475.282226562 81 c 0
 564.106445312 80 652.806640625 118 712.270507812 166 c 1
 744.688476562 123 l 1
 658.171875 35 548.001953125 -17 406.001953125 -17 c 0
 202.001953125 -17 74.2216796875 92 109.721679688 299 c 0
EndSplineSet
Validated: 524325
EndChar

StartChar: q
Encoding: 113 113 24
GlifName: q
Width: 700
VWidth: 79
Flags: HMW
LayerCount: 2
Back
Fore
SplineSet
665.084960938 -232 m 1
 529.305664062 -235.5390625 379.810546875 -285 377.79296875 -285 c 1
 387.579101562 -246.772460938 407.641601562 -178.05859375 426.208007812 -90 c 0
 434.995117188 -48.3251953125 449.216591589 26.7597984531 463.966796875 119 c 0
 467.986122839 144.134798453 484.822015786 198.315469228 488.25390625 220 c 0
 494.040765786 256.564492665 488.678710938 286.030273438 491.109375 301 c 0
 506.48828125 395.712890625 506.947265625 467.491210938 504 592 c 1
 549 592 592 600 637 605 c 1
 591.629882812 397.09375 543.998046875 128.828125 517.227539062 -107 c 0
 508.965820312 -179.778320312 561.439453125 -188.124023438 678.841796875 -191 c 1
 665.084960938 -232 l 1
86.0205078125 228.27734375 m 0
 108.22265625 443.990234375 268.314453125 637.982421875 633.098632812 604.64453125 c 1
 563.491210938 470.760742188 l 1
 563.491210938 470.760742188 501.241210938 535.4375 391 529.06640625 c 0
 269.436523438 522.041015625 209.559570312 376.276367188 198.690429688 263.40234375 c 0
 188.719726562 159.859375 208.70703125 72.9306640625 277.395507812 71.3447265625 c 0
 377.353515625 69.037109375 480.384765625 245.627929688 499.313476562 349.9140625 c 1
 518.279296875 295.630859375 l 1
 495.413085938 191.219726562 377.046875 -12.8583984375 234.106445312 -17.2666015625 c 0
 109.169921875 -21.1201171875 72.4912109375 96.8232421875 86.0205078125 228.27734375 c 0
EndSplineSet
Validated: 524325
EndChar

StartChar: f
Encoding: 170 170 25
GlifName: ordfeminine
Width: 629
VWidth: 0
Flags: HMW
LayerCount: 2
Back
SplineSet
16 61 m 5
 92 57 128 78 132 136 c 5
 246 152 l 5
 244 57 336 53 364 54 c 5
 374 0 l 5
 23 0 l 5
 16 61 l 5
49 520 m 5
 39 588 l 5
 180.5078125 583.043945312 252.553710938 582.5 384 588 c 5
 397 522 l 5
 205 523.526367188 l 5
 131 439.640625 l 5
 131.806119792 506.45703125 127.041471355 529.84765625 49 520 c 5
179 126 m 5
 131 117 l 5
 134 279 134 398.844726562 124 603 c 4
 112.348303638 840.875525683 287.151353994 856.606023047 384 856 c 4
 454.639648438 855.543945312 508 829 508 829 c 5
 514.097371914 773.247646186 513.364257812 750.153320312 507 697 c 5
 422 704 l 5
 418.396484375 769.711914062 397.016111001 796.076821267 368.025390625 814 c 5
 417.333946049 853.716431559 461.855471991 786.49783642 416 760.916992188 c 5
 407.370666558 785.848473737 383.248161396 801.176248786 355 800.7265625 c 4
 275.005859375 799.453125 243.676255175 727.977754595 241 601 c 4
 237.260233192 423.562812246 235.344726562 251.282226562 251 112 c 5
 179 126 l 5
EndSplineSet
Fore
Refer: 1 97 N 1 0 0 1 0 0 3
Validated: 6291461
EndChar

StartChar: l
Encoding: 108 108 28
GlifName: l
Width: 407
VWidth: 79
Flags: HMW
LayerCount: 2
Back
SplineSet
56.9150390625 822 m 1
 192.694335938 825.5390625 341.189453125 875 343.20703125 875 c 1
 315.301222192 765.990745324 221.837187278 360.20578923 216.4453125 180.267578125 c 0
 212.848109766 60.2213508538 265.774414062 67.1220703125 367.639648438 79 c 1
 371.763671875 40 l 1
 352.383789062 33.08203125 237.842773438 -15.7138671875 168 -14.55859375 c 4
 118.331054688 -13.736328125 91.4863781066 24.6513709793 91.318359375 70 c 0
 90.8630043811 192.901324756 196.388671875 530.606445312 200.934570312 706 c 0
 202.006468647 747.356854275 154.805664062 759 43.158203125 761 c 1
 56.9150390625 822 l 1
EndSplineSet
Fore
SplineSet
66.9150390625 824 m 1
 202.694335938 827.5390625 342.189453125 877 344.20703125 877 c 1
 334.420898438 838.772460938 314.358398438 770.05859375 295.791992188 682 c 0
 280.573242188 609.8203125 240.052734375 417.426757812 230.890625 361 c 0
 221.844726562 305.288085938 212.771484375 245.5078125 217.421875 170.99609375 c 0
 223.028320312 81.173828125 267.8515625 58.130859375 369.639648438 70 c 1
 373.763671875 31 l 1
 354.383789062 24.08203125 255.845703125 -24.521484375 186 -23.55859375 c 0
 126.331054688 -22.736328125 104.040482458 15.7698718 107.318359375 61 c 0
 120.024049657 236.320799063 196.021995277 439.863043461 203.772460938 675 c 0
 206.185447351 748.206218353 170.560546875 760.124023438 53.158203125 763 c 1
 66.9150390625 824 l 1
EndSplineSet
Validated: 524321
EndChar

StartChar: u
Encoding: 117 117 29
GlifName: u
Width: 693
VWidth: 79
Flags: HMW
LayerCount: 2
Back
Fore
SplineSet
546.947265625 388 m 1
 475.95703125 150 297.819335938 -17.4306640625 171.087890625 -15 c 0
 111.42578125 -13.85546875 83.857421875 9.8642578125 84.6591796875 73 c 0
 85.7880859375 161.751953125 132.604492188 268.08984375 152.921875 376 c 0
 156.234375 393.59375 166.721317626 430.581542024 163.263671875 461.952148438 c 0
 157.964481688 510.030760774 119.9375 527.430664062 33.158203125 528 c 1
 36.9150390625 569 l 1
 172.694335938 572.5390625 311.189453125 612 313.20703125 612 c 1
 307.733398438 590.619140625 296.85546875 559.702148438 283.474609375 521.196289062 c 0
 265.645507812 452.068359375 208.610351562 312.7421875 202.471679688 170 c 0
 200.13671875 115.712890625 211.014648438 83.427734375 254 83.2080078125 c 0
 359.436523438 82.6689453125 505.145507812 304.771484375 520.471679688 412 c 1
 546.947265625 388 l 1
539.756835938 596 m 1
 605.536132812 605.5390625 664.03125 614 666.048828125 614 c 1
 648.521484375 545.53125 561.180926987 298.775564166 547.635742188 147.631835938 c 0
 539.201434799 53.5177516661 594.883789062 48.84765625 668.639648438 69 c 1
 672.763671875 30 l 1
 657.009765625 21.814453125 565.776367188 -35.6982421875 499 -34.55859375 c 0
 439.333984375 -33.541015625 416.047851562 5.830078125 426.318359375 50 c 0
 444.29296875 127.3046875 478.4453125 194.369140625 502.915039062 306.138671875 c 0
 509.69921875 342.459960938 514.88671875 373.578125 517.645507812 399.836914062 c 0
 525.6328125 475.869140625 539.10546875 573.416015625 539.756835938 596 c 1
EndSplineSet
Validated: 524325
EndChar

StartChar: k
Encoding: 107 107 30
GlifName: k
Width: 705
VWidth: 79
Flags: HMW
LayerCount: 2
Back
SplineSet
99.9150390625 824 m 5
 235.694335938 827.5390625 375.189453125 877 377.20703125 877 c 5
 367.420898438 838.772460938 337.358398438 730.05859375 318.791992188 642 c 4
 303.573242188 569.8203125 273.052734375 417.426757812 263.890625 361 c 4
 254.844726562 305.288085938 245.771484375 245.5078125 250.421875 170.99609375 c 4
 256.028320312 81.173828125 273.8515625 58.130859375 375.639648438 70 c 5
 379.763671875 31 l 5
 360.383789062 19.08203125 288.845703125 -24.521484375 219 -23.55859375 c 4
 159.331054688 -22.736328125 137.040039062 15.76953125 140.318359375 61 c 4
 153.024414062 236.3203125 229.022460938 439.86328125 236.772460938 675 c 4
 239.185546875 748.206054688 203.560546875 760.124023438 86.158203125 763 c 5
 99.9150390625 824 l 5
393.883789062 234.34765625 m 5
 362.103515625 225.482421875 318.77734375 221 296.1328125 227 c 5
 299.345703125 232.168945312 296 243 301.064453125 259 c 5
 301.364257812 258.924804688 301.666015625 258.850585938 301.971679688 258.77734375 c 6
 302.064453125 259 l 5
 311.454101562 255.387695312 361.349609375 258.930664062 399.53125 278.875 c 4
 490.08203125 326.173828125 521.5859375 378.525390625 534.634765625 429 c 4
 544.578125 467.463867188 527.696289062 493.943359375 492 494.274414062 c 4
 366.62109375 495.4375 272.724609375 338.993164062 248.392578125 201 c 5
 228.73828125 234 l 5
 257.076171875 428 405.84375 611 550 611 c 4
 637 611 648.555664062 559.0703125 647.400390625 512 c 4
 644.661132812 400.405273438 570.286132812 302.526367188 460.129882812 251.205078125 c 5
 496.336914062 164.439453125 527.487304688 72.2255859375 642 67.2978515625 c 4
 659.203125 66.5576171875 688.1953125 70.4501953125 709.2265625 78 c 5
 721 50 l 5
 707.881835938 35 670 -20 575 -20 c 4
 442.014648438 -20 426.475585938 133.622070312 393.883789062 234.34765625 c 5
EndSplineSet
Fore
SplineSet
99.9150390625 824 m 1
 235.694335938 827.5390625 375.189453125 877 377.20703125 877 c 1
 367.420898438 838.772460938 337.358398438 730.05859375 318.791992188 642 c 0
 303.573242188 569.8203125 273.052734375 417.426757812 263.890625 361 c 0
 246.120117188 247.793680198 192.083007812 41.1167915056 348.639648438 60 c 1
 352.763671875 21 l 1
 333.383789062 11.266465989 271.845703125 -24.3449969403 202 -23.55859375 c 0
 142.331054688 -22.736328125 119.040039062 14.76953125 122.318359375 60 c 0
 135.024414062 235.3203125 229.022460938 439.86328125 236.772460938 675 c 0
 239.185546875 748.206054688 203.560546875 760.124023438 86.158203125 763 c 1
 99.9150390625 824 l 1
299.883789062 334.34765625 m 1
 295.53125 348.875 l 1
 386.08203125 376.173828125 488.5859375 441.525390625 501.634765625 492 c 0
 511.578125 530.463867188 497.6953125 566.838867188 472 587.274414062 c 1
 510 614 l 1
 587 604 618.555664062 572.0703125 617.400390625 525 c 0
 614.882692418 407.929438931 491.376356149 365.044648242 390.129882812 311.205078125 c 1
 421.789627234 230.294845386 499.484878559 88.9395710236 599 76.2978515625 c 0
 635.633899449 71.8567565952 654.636168248 72.0571591743 676.2265625 90 c 1
 693 53 l 1
 678.63248698 32 643.954938616 -16.215234375 555 -17 c 0
 427.354030035 -17.9150390625 323.548000379 233.622070312 299.883789062 334.34765625 c 1
EndSplineSet
Validated: 524321
EndChar

StartChar: j
Encoding: 106 106 31
GlifName: j
Width: 392
VWidth: 79
Flags: HMW
LayerCount: 2
Back
SplineSet
99.8544921875 781.734375 m 4
 99.8544921875 823.528320312 133.403320312 852.086914062 174.846679688 852.086914062 c 4
 225.00390625 852.086914062 249.841796875 812.982421875 249.841796875 771.190429688 c 4
 249.841796875 729.396484375 216.29296875 700.8359375 174.846679688 700.8359375 c 4
 133.403320312 700.8359375 99.8544921875 739.940429688 99.8544921875 781.734375 c 4
99.8544921875 781.734375 m 4
 99.8544921875 823.528320312 133.403320312 852.086914062 174.846679688 852.086914062 c 4
 225.00390625 852.086914062 249.841796875 812.982421875 249.841796875 771.190429688 c 4
 249.841796875 729.396484375 216.29296875 700.8359375 174.846679688 700.8359375 c 4
 133.403320312 700.8359375 99.8544921875 739.940429688 99.8544921875 781.734375 c 4
-28 -79 m 5
 68 -103 147 -71 161 77 c 5
 261 72 l 5
 262.500976562 -104.223632812 196.19921875 -152.735351562 69 -154.159179688 c 4
 14.095703125 -154.7734375 -37.2060546875 -138.005859375 -51 -130 c 5
 -28 -79 l 5
31 584 m 5
 114 582 271 595 271 595 c 5
 261.327148438 539.604492188 259.629882812 147.107421875 261 60 c 5
 161 70 l 5
 176 270 157 386 150 448 c 4
 145 493 109 523 37 523 c 5
 31 584 l 5
EndSplineSet
Fore
SplineSet
191.729492188 782 m 0
 199.134765625 824 238.072265625 852 279.072265625 852 c 0
 329.072265625 852 347.1953125 813 339.790039062 771 c 0
 332.383789062 729 293.447265625 701 252.447265625 701 c 0
 211.447265625 701 184.32421875 740 191.729492188 782 c 0
87.0234375 544 m 1
 222.802734375 547.5390625 364.297851562 597 366.315429688 597 c 1
 310.756859905 458.097673472 283.642578125 247.211914062 263.530273438 80.99609375 c 0
 247.592773438 -50.7197265625 237.62890625 -159.123046875 68 -166.302734375 c 0
 3.84375 -169.017578125 -46.0712890625 -139.732421875 -62.8916015625 -133.55859375 c 1
 -47.931640625 -84 l 1
 1.955078125 -106.087890625 109.044921875 -103.818359375 150.426757812 -9 c 0
 200.591796875 105.942382812 203.411132812 209.615234375 209.880859375 425 c 0
 212.080078125 498.212890625 170.668945312 500.124023438 73.2666015625 503 c 1
 87.0234375 544 l 1
EndSplineSet
Validated: 524321
EndChar

StartChar: comma
Encoding: 44 44 32
GlifName: comma
Width: 196
VWidth: 79
Flags: HMW
LayerCount: 2
Back
Fore
SplineSet
32.806640625 35.2001953125 m 0
 39.529296875 85.7998046875 82.7470703125 118.799804688 124.546875 118.799804688 c 0
 175.147460938 118.799804688 196.50390625 90.2001953125 188.939453125 47.2998046875 c 0
 181.375976562 4.400390625 150.451171875 -27.5 108.004882812 -37.400390625 c 1
 88.8515625 -27.5 25.6962890625 -17.599609375 32.806640625 35.2001953125 c 0
24.6123046875 -129.799804688 m 1
 33.345703125 -117.700195312 71.1259765625 -59.400390625 69.4970703125 18.7001953125 c 9
 136.333984375 48.400390625 l 25
 141.126953125 13.2001953125 196.053710938 81.400390625 188.939453125 47.2998046875 c 0
 176.4609375 -11 82.71875 -130.900390625 51.3388671875 -152.900390625 c 1
 24.6123046875 -129.799804688 l 1
EndSplineSet
Validated: 524325
EndChar

StartChar: acute
Encoding: 180 180 33
GlifName: acute
Width: 496
VWidth: 0
Flags: HMW
LayerCount: 2
Back
Fore
SplineSet
73 1120 m 9
 83 1066 l 17
 191 1081 368 1158 431 1204 c 9
 371 1298 l 17
 308 1232 165 1142 73 1120 c 9
EndSplineSet
Validated: 9
EndChar

StartChar: x
Encoding: 168 168 34
GlifName: x
Width: 496
VWidth: 0
Flags: HMW
LayerCount: 2
Back
Fore
SplineSet
73 1140 m 9
 83 1066 l 17
 191 1081 368 1158 431 1204 c 9
 371 1298 l 17
 328 1242 165 1162 73 1140 c 9
EndSplineSet
Validated: 9
EndChar

StartChar: E
Encoding: 69 69 36
GlifName: E_
Width: 679
VWidth: 79
Flags: HMW
LayerCount: 2
Back
Fore
SplineSet
50.755859375 61 m 1
 119.639648438 49 148.693359375 89 164.157226562 137 c 1
 287.803710938 135 l 1
 285.629882812 117 283.577148438 77 318.872070312 73 c 0
 407.28515625 64 513.9296875 79 552.1640625 86 c 1
 487.11328125 29 l 1
 526.990234375 68 575.567382812 145 592.970703125 204 c 1
 666.380859375 212 l 1
 666.380859375 212 662.509765625 139 652.106445312 80 c 24
 647.874023438 56 631 0 631 0 c 1
 48 0 l 1
 50.755859375 61 l 1
192.061523438 800 m 1
 267.00390625 794 413.1796875 795 496.1796875 795 c 0
 582.1796875 795 691.356445312 796 789.23828125 801 c 1
 789.23828125 801 782.1875 744 777.955078125 720 c 24
 767.551757812 661 745.680664062 588 745.680664062 588 c 1
 675.090820312 596 l 1
 678.494140625 655 667.071289062 732 630.948242188 771 c 1
 717.307617188 722 l 1
 637.71875 730 567.248046875 733 468.248046875 733 c 0
 418.248046875 733 400.958007812 703 392.66796875 673 c 0
 338.049804688 471 296.913085938 198 289.567382812 145 c 0
 283.456054688 99 281.758789062 44 340.758789062 44 c 1
 321.584960938 26 l 1
 117.290039062 30 l 1
 117.290039062 30 144.6953125 72 163.98046875 136 c 0
 196.7265625 265 245.582536848 488.613215444 266.905273438 663 c 0
 272.727068098 710.613215444 264.010742188 743 187.305664062 739 c 1
 192.061523438 800 l 1
258.711914062 367 m 1
 272.11328125 443 l 1
 472.2890625 444 l 1
 619.287109375 461 l 1
 603.241210938 370 l 1
 479.475585938 377 384.064453125 369 258.711914062 367 c 1
EndSplineSet
Validated: 524325
Colour: ff0000
EndChar

StartChar: F
Encoding: 70 70 37
GlifName: F_
Width: 691
VWidth: 79
Flags: HMW
LayerCount: 2
Back
Fore
SplineSet
42.755859375 61 m 1
 125.05078125 57 152.693359375 89 169.157226562 137 c 1
 292.744140625 146 l 1
 273.993164062 51 385.81640625 50 402.993164062 51 c 1
 404 0 l 1
 42 0 l 1
 42.755859375 61 l 1
192.061523438 800 m 1
 267.00390625 794 393.00390625 794 476.00390625 794 c 0
 562.00390625 794 691.356445312 796 819.23828125 801 c 1
 819.23828125 801 812.1875 744 807.955078125 720 c 24
 797.551757812 661 775.680664062 588 775.680664062 588 c 1
 705.090820312 596 l 1
 708.494140625 655 697.071289062 732 660.948242188 771 c 1
 737.131835938 721 l 1
 481.366210938 728 l 2
 423.541992188 729 403.310546875 705 392.905273438 663 c 0
 338.11328125 443 298.618164062 202 292.567382812 145 c 0
 287.80859375 101 295.639648438 49 374.639648438 49 c 1
 350.176757812 1 l 1
 117 0 l 1
 117 0 148.6953125 72 167.98046875 136 c 0
 201.608398438 270 244.425697799 481.603903338 266.905273438 663 c 0
 272.804604049 710.603903338 264.010742188 743 187.305664062 739 c 1
 192.061523438 800 l 1
250.475585938 377 m 1
 262.11328125 443 l 1
 502.2890625 444 l 1
 649.287109375 461 l 1
 633.241210938 370 l 1
 509.475585938 377 375.828125 379 250.475585938 377 c 1
EndSplineSet
Validated: 524325
Colour: ff0000
EndChar

StartChar: P
Encoding: 80 80 38
GlifName: P_
Width: 650
VWidth: 79
Flags: HMW
LayerCount: 2
Back
Fore
SplineSet
157.532226562 797 m 1
 343.416992188 785 417.4140625 802 567.4140625 802 c 0
 722.4140625 802 765.426757812 717 747.030273438 607 c 0
 719.231445312 438 574.426757812 303 416.07421875 301 c 0
 364.8984375 300 299.366210938 314 299.366210938 314 c 1
 280.734375 214 277.736328125 197 274.688476562 123 c 0
 271.4609375 65 315.755859375 61 368.755859375 61 c 1
 380 0 l 1
 311.823242188 -1 107 0 33 0 c 1
 33.755859375 61 l 1
 110.993164062 51 146.577148438 77 157.393554688 127 c 0
 204.303710938 342 229.344726562 467 249.556640625 627 c 0
 256.784179688 685 249.658203125 741 156.423828125 734 c 1
 157.532226562 797 l 1
318.118164062 409 m 1
 347.533203125 383 388.536132812 366 440.711914062 367 c 0
 553.888671875 368 607.815429688 464 627.682617188 571 c 0
 648.607421875 684 586.1875 744 506.540039062 746 c 0
 460.715820312 747 405.12890625 738 380.541992188 729 c 1
 358.96484375 652 336.397460938 507 318.118164062 409 c 1
EndSplineSet
Validated: 524321
EndChar

StartChar: S
Encoding: 83 83 39
GlifName: S_
Width: 636
VWidth: 153
Flags: HMW
LayerCount: 2
Back
Fore
SplineSet
69.2314453125 24 m 1
 72.1669921875 69 88.2724609375 149 113.849609375 226 c 1
 207.91015625 215 l 1
 201.331054688 155 205.280273438 98 235.521484375 54 c 1
 178.990234375 68 161.864257812 124 160.5625 179 c 1
 189.98046875 136 218.524414062 63.0537109375 316.521484375 54 c 0
 435.58203125 43 493.883789062 95.4609375 513.331054688 155 c 0
 569.834960938 328 210.833007812 345 212.685546875 554 c 0
 214.90234375 680 328.530273438 814 528.825195312 810 c 0
 648.47265625 808 722.830078125 776 722.830078125 776 c 1
 720.366210938 728 701.3203125 637 686.561523438 593 c 1
 596.501953125 604 l 1
 602.96484375 652 598.366210938 728 582.297851562 790 c 2
 623.204101562 625 l 1
 608.259765625 648 597.950195312 754 484.126953125 755 c 0
 403.302734375 756 354.018554688 692 350.8515625 623 c 0
 342.700195312 452 662.934570312 459 643.083984375 233 c 0
 629.634765625 83 521.178710938 -16 301.001953125 -17 c 0
 167.896484375 -17.6044921875 69.2314453125 24 69.2314453125 24 c 1
EndSplineSet
Validated: 524325
EndChar

StartChar: U
Encoding: 85 85 40
GlifName: U_
Width: 767
VWidth: 79
Flags: HMW
LayerCount: 2
Back
Fore
SplineSet
132.061523438 800 m 1
 197.00390625 794 214.474609375 791 286.651367188 792 c 0
 327.651367188 792 417.827148438 793 480.23828125 801 c 1
 480.23828125 801 477.126953125 755 476.776367188 736 c 1
 378.245117188 750 339.725585938 679 322.912109375 612 c 0
 291.341796875 484 256.545898438 298 252.963867188 255 c 0
 242.333007812 138 292.329101562 53.642578125 428.4609375 65 c 0
 524.795898438 73.037109375 603.884765625 146.329101562 634.079101562 267 c 0
 664.5546875 388.791992188 679.741278405 515.097662357 704.025390625 641 c 0
 721.633896019 732.292280789 664.221880901 738.012955847 592.366210938 728 c 1
 592.1875 744 596.297851562 790 595.885742188 799 c 1
 660.827148438 793 708.297851562 790 780.474609375 791 c 0
 821.474609375 791 846.651367188 792 909.061523438 800 c 1
 909.061523438 800 905.950195312 754 905.600585938 735 c 1
 856.834960938 742 805.349933902 716.727546919 792.905273438 663 c 0
 755.08723859 499.727546919 736.051757812 346.626953125 708.318359375 240 c 0
 658.639648438 49 497.53125 -14 368.53125 -14 c 0
 253.53125 -14 97.2900390625 30 133.436523438 235 c 0
 155.301757812 359 201.038085938 556 211.849609375 640 c 0
 220.368164062 711 213.482421875 740 128.541992188 729 c 1
 128.36328125 745 132.474609375 791 132.061523438 800 c 1
EndSplineSet
Validated: 524321
Colour: ff0000
EndChar

StartChar: I
Encoding: 73 73 41
GlifName: I_
Width: 422
VWidth: 79
Flags: HMW
LayerCount: 2
Back
Fore
SplineSet
25.1669921875 69 m 1
 95.521484375 54 156.9296875 79 176.565429688 162 c 0
 204.137695312 273 242.695338652 479.121446377 268.377929688 643 c 0
 282.658229277 734.121446377 228.305664062 739 156.541992188 729 c 1
 156.36328125 745 160.474609375 791 160.061523438 800 c 1
 225.00390625 794 272.474609375 791 344.651367188 792 c 0
 385.651367188 792 475.827148438 793 538.23828125 801 c 1
 538.23828125 801 535.126953125 755 534.776367188 736 c 1
 485.010742188 743 412.955078125 720 399.2578125 665 c 0
 355.166015625 483 296.796875 186 294.509765625 139 c 0
 293.166992188 69 347.932617188 62 401.166992188 69 c 1
 400 0 l 1
 20.8232421875 -1 l 1
 25.1669921875 69 l 1
EndSplineSet
Validated: 524321
EndChar

StartChar: O
Encoding: 79 79 42
GlifName: O_
Width: 806
VWidth: 153
Flags: HMW
LayerCount: 2
Back
Fore
SplineSet
83.54296875 315 m 0
 132.854492188 606 343.766601562 804 579.590820312 803 c 0
 776.4140625 802 894.900390625 697 841.231445312 438 c 0
 793.147460938 205 638.649414062 -19 352.53125 -14 c 0
 124.236328125 -10 51.3359375 121 83.54296875 315 c 0
233.470703125 411 m 0
 191.852539062 209 264.345703125 53 428.166992188 69 c 0
 568.811523438 84 680.908203125 232 716.236328125 404 c 0
 756.620117188 599 667.245117188 750 502.013671875 726 c 0
 435.25 716 284.19921875 659 233.470703125 411 c 0
EndSplineSet
Validated: 524321
EndChar

StartChar: T
Encoding: 84 84 43
GlifName: T_
Width: 620
VWidth: 79
Flags: HMW
LayerCount: 2
Back
Fore
SplineSet
99.7958984375 600 m 1
 131.953125 737 127.958007812 703 146.061523438 800 c 1
 253.00390625 794 321.474609375 791 439.651367188 792 c 0
 508.651367188 792 665.827148438 793 769.23828125 801 c 1
 762.3671875 773.125 720.391601562 592.036132812 719.680664062 588 c 1
 649.090820312 596 l 1
 652.494140625 655 641.071289062 732 604.948242188 771 c 1
 677.78125 702 l 1
 594.248046875 733 512.423809831 728 428.366210938 728 c 0
 337.183969436 728 224.307617188 722 187.484375 723 c 1
 248.008789062 760 l 1
 203.661132812 724 189.436523438 649 179.088867188 613 c 1
 99.7958984375 600 l 1
135.755859375 61 m 1
 211.05078125 57 239.693359375 89 255.157226562 137 c 1
 381.744140625 146 l 1
 362.993164062 51 448.81640625 50 466.993164062 51 c 1
 468 0 l 1
 135 0 l 1
 135.755859375 61 l 1
309.83203125 759 m 1
 372.479492188 757 517.53515625 780 517.53515625 780 c 1
 458.680664062 588 387.618164062 202 381.567382812 145 c 0
 376.80859375 101 356.639648438 49 438.639648438 49 c 1
 414.176757812 1 l 1
 202 0 l 1
 202 0 237.6953125 72 253.98046875 136 c 0
 286.903320312 266 334.984375 516 359.252929688 699 c 0
 365.010742188 743 344.540039062 746 314.540039062 746 c 1
 309.83203125 759 l 1
EndSplineSet
Validated: 524325
EndChar

StartChar: R
Encoding: 82 82 44
GlifName: R_
Width: 798
VWidth: 79
Flags: HMW
LayerCount: 2
Back
Fore
SplineSet
157.532226562 797 m 1
 343.416992188 785 417.4140625 802 567.4140625 802 c 0
 722.4140625 802 765.426757812 717 747.030273438 607 c 0
 719.231445312 438 579.716796875 333 421.364257812 331 c 0
 370.1875 330 301.129882812 324 301.129882812 324 c 1
 282.497070312 224 277.736328125 197 274.688476562 123 c 0
 271.4609375 65 315.755859375 61 368.755859375 61 c 1
 380 0 l 1
 311.823242188 -1 107 0 33 0 c 1
 33.755859375 61 l 1
 110.993164062 51 146.577148438 77 157.393554688 127 c 0
 204.303710938 342 229.344726562 467 249.556640625 627 c 0
 256.784179688 685 249.658203125 741 156.423828125 734 c 1
 157.532226562 797 l 1
319.880859375 419 m 1
 344.059570312 403 393.275390625 390.890625 446.001953125 397 c 0
 540.94140625 408 597.815429688 464 617.682617188 571 c 0
 638.607421875 684 586.1875 744 506.540039062 746 c 0
 460.715820312 747 405.12890625 738 380.541992188 729 c 1
 358.96484375 652 338.161132812 517 319.880859375 419 c 1
388.064453125 369 m 1
 415.830078125 362 501.475585938 377 537.23828125 387 c 1
 537.23828125 387 656.580078125 60 806.755859375 61 c 1
 808 0 l 1
 694.881835938 5 616.529296875 3 502 0 c 1
 498.05078125 57 l 1
 533.345703125 53 593.411668935 61.3517218148 559.216796875 126 c 0
 543.162645498 156.351721815 462.424804688 320 388.064453125 369 c 1
EndSplineSet
Validated: 524325
EndChar

StartChar: Q
Encoding: 81 81 45
GlifName: Q_
Width: 842
VWidth: 153
Flags: HMW
LayerCount: 2
Back
Fore
SplineSet
333.294921875 -4 m 1
 405.881835938 5 l 1
 444.072265625 -96 544.783203125 -126 657.4296875 -128 c 0
 780.077148438 -130 896.8359375 -86 896.8359375 -86 c 1
 862.029296875 -204 l 1
 795.502929688 -224 725.681640625 -240 612.857421875 -239 c 0
 369.563476562 -235 349.952148438 -74 333.294921875 -4 c 1
EndSplineSet
Refer: 42 79 N 1 0 0.176327 1 0 0 2
Validated: 524325
EndChar

StartChar: L
Encoding: 76 76 46
GlifName: L_
Width: 679
VWidth: 79
Flags: HMW
LayerCount: 2
Back
Fore
SplineSet
49 0 m 1
 69.755859375 61 l 1
 145.05078125 57 163.693359375 89 179.157226562 137 c 1
 292.803710938 135 l 1
 290.629882812 117 288.577148438 77 323.872070312 73 c 0
 412.28515625 64 518.9296875 79 557.1640625 86 c 1
 492.11328125 29 l 1
 531.990234375 68 580.567382812 145 597.970703125 204 c 1
 671.380859375 212 l 1
 671.380859375 212 667.509765625 139 657.106445312 80 c 24
 652.874023438 56 636 0 636 0 c 1
 49 0 l 1
202.061523438 800 m 1
 277.00390625 794 332.651367188 792 415.651367188 792 c 0
 453.651367188 792 491.00390625 794 536.356445312 796 c 1
 521.071289062 732 l 1
 504.071289062 732 486.248046875 733 468.248046875 733 c 0
 418.248046875 733 409.194335938 693 403.66796875 673 c 0
 346.049804688 471 301.913085938 198 294.567382812 145 c 0
 288.456054688 99 286.758789062 44 345.758789062 44 c 1
 326.584960938 26 l 1
 132.290039062 30 l 1
 132.290039062 30 159.6953125 72 178.98046875 136 c 0
 211.7265625 265 255.582536848 488.613215444 276.905273438 663 c 0
 282.727068098 710.613215444 274.010742188 743 197.305664062 739 c 1
 202.061523438 800 l 1
EndSplineSet
Validated: 524325
EndChar

StartChar: G
Encoding: 71 71 47
GlifName: G_
Width: 757
VWidth: 79
Flags: HMW
LayerCount: 2
Back
Fore
SplineSet
89.7216796875 299 m 0
 129.6875 537 303.4140625 802 634.4140625 802 c 0
 755.4140625 802 828.243164062 767 828.243164062 767 c 1
 822.25 716 810.6171875 616 800.211914062 574 c 1
 734.740234375 577 l 1
 718.2578125 665 669.892578125 748 625.126953125 755 c 1
 642.830078125 776 819.715820312 747 749.96484375 652 c 1
 733.670898438 656 677.955078125 720 554.955078125 720 c 0
 404.955078125 720 274.385742188 592 236.825195312 396 c 0
 203.14453125 222 249.580078125 60 436.05078125 57 c 0
 544.698242188 55 616.103515625 97 670.272460938 149 c 1
 733.454101562 116 l 1
 640.176757812 1 492.475585938 -37 385.475585938 -37 c 0
 171.475585938 -37 54.2216796875 92 89.7216796875 299 c 0
452.415039062 388 m 1
 762.415039062 388 l 1
 729.490234375 275 l 1
 675.426757812 303 635.190429688 313 453.366210938 314 c 1
 452.415039062 388 l 1
597.111328125 46 m 1
 654.744140625 146 667.01171875 329 677.415039062 388 c 1
 764.415039062 388 l 1
 765.24609375 336 752.739257812 180 733.454101562 116 c 1
 597.111328125 46 l 1
EndSplineSet
Validated: 524325
Colour: ff0000
EndChar

StartChar: D
Encoding: 68 68 48
GlifName: D_
Width: 799
VWidth: 79
Flags: HMW
LayerCount: 2
Back
Fore
SplineSet
157.708984375 798 m 1
 347.592773438 786 497.590820312 803 587.590820312 803 c 0
 755.590820312 803 893.368164062 711 847.639648438 463 c 0
 787.038085938 142 597.705078125 4 320 0 c 0
 251.823242188 -1 107 0 33 0 c 1
 33.755859375 61 l 1
 110.993164062 51 146.577148438 77 157.393554688 127 c 0
 204.303710938 342 229.521484375 468 249.733398438 628 c 0
 256.959960938 686 249.834960938 742 156.600585938 735 c 1
 157.708984375 798 l 1
378.779296875 719 m 1
 321.166015625 483 297.422874374 338.188554488 278.038085938 142 c 0
 271.930686874 80.188554488 318.047851562 74 371.224609375 75 c 0
 562.577148438 77 680.560546875 196 717.59375 372 c 0
 765.090820312 596 670.423828125 734 503.12890625 738 c 0
 449.305664062 739 407.541992188 729 378.779296875 719 c 1
EndSplineSet
Validated: 524321
Colour: ff0000
EndChar

StartChar: J
Encoding: 74 74 49
GlifName: J_
Width: 422
VWidth: 79
Flags: HMW
LayerCount: 2
Back
Fore
SplineSet
-68.03125 -193 m 1
 -32.0380859375 -142 l 1
 140.026367188 -187 158.826171875 -18 180.811523438 84 c 0
 207.147460938 205 239.110351562 460 268.377929688 643 c 0
 283.423828125 734 198.305664062 739 166.541992188 729 c 1
 166.36328125 745 170.474609375 791 170.061523438 800 c 1
 235.00390625 794 272.474609375 791 344.651367188 792 c 0
 385.651367188 792 465.827148438 793 528.23828125 801 c 1
 528.23828125 801 525.126953125 755 524.776367188 736 c 1
 475.010742188 743 411.955078125 720 399.2578125 665 c 0
 344.17578125 415 318.021484375 261 284.876953125 39 c 0
 265.424804688 -94 203.150390625 -226 35.9736328125 -227 c 0
 -19.0263671875 -227 -55.44140625 -201 -68.03125 -193 c 1
EndSplineSet
Validated: 524321
EndChar

StartChar: K
Encoding: 75 75 50
GlifName: K_
Width: 752
VWidth: 79
Flags: HMW
LayerCount: 2
Back
Fore
SplineSet
33.28515625 64 m 1
 108.580078125 60 148.693359375 89 164.157226562 137 c 1
 273.744140625 146 l 1
 254.993164062 51 319.345703125 53 337.521484375 54 c 1
 338 0 l 1
 32 0 l 1
 33.28515625 64 l 1
163.708984375 798 m 1
 246.356445312 796 414.825195312 810 414.825195312 810 c 1
 352.267578125 597 280.67578125 208 273.567382812 145 c 0
 268.80859375 101 227.168945312 52 309.168945312 52 c 1
 284.176757812 1 l 1
 109 0 l 1
 109 0 143.6953125 72 162.98046875 136 c 0
 196.784179688 271 234.223632812 489 262.725585938 679 c 0
 265.484375 723 237.600585938 735 159.600585938 735 c 1
 163.708984375 798 l 1
280.223632812 489 m 1
 309.108398438 477 338.7578125 458 425.7578125 458 c 1
 447.521484375 468 585.91015625 629 640.018554688 692 c 0
 657.720703125 713 658.305664062 739 579.776367188 736 c 1
 581.885742188 799 l 1
 698.532226562 797 850.4140625 802 850.4140625 802 c 1
 847.953125 737 l 1
 808.12890625 738 778.895507812 731 744.252929688 699 c 0
 671.0859375 630 493.3515625 416 457.590820312 389 c 1
 426.23828125 387 349.767578125 390 296.00390625 380 c 1
 280.223632812 489 l 1
335.697265625 469 m 1
 363.462890625 462 422.405273438 456 458.16796875 466 c 1
 458.16796875 466 626.580078125 60 776.755859375 61 c 1
 778 0 l 1
 664.881835938 5 586.529296875 3 472 0 c 1
 468.05078125 57 l 1
 503.345703125 53 563.411668935 61.3517218148 529.216796875 126 c 0
 513.162645498 156.351721815 374.767578125 390 335.697265625 469 c 1
EndSplineSet
Validated: 524325
Colour: ff0000
EndChar

StartChar: Z
Encoding: 90 90 51
GlifName: Z_
Width: 679
VWidth: 79
Flags: HMW
LayerCount: 2
Back
Fore
SplineSet
12 0 m 1
 15.46875 14 25.111328125 46 31.51953125 71 c 1
 115.5703125 128 442.569335938 542 570.78125 702 c 0
 584.955078125 720 592.248046875 733 542.248046875 733 c 0
 469.248046875 733 349.895507812 731 291.189453125 727 c 1
 261.13671875 687 249.3203125 637 237.090820312 596 c 1
 163.680664062 588 l 1
 163.680664062 588 167.551757812 661 177.955078125 720 c 0
 182.1875 744 195.23828125 801 195.23828125 801 c 1
 242.590820312 803 350.356445312 796 436.356445312 796 c 0
 519.356445312 796 721.00390625 794 798.061523438 800 c 1
 775.305664062 739 l 1
 674.4921875 672 209.047851562 74 186.874023438 56 c 1
 156.27734375 115 l 1
 181.98828125 85 264.400390625 76 319.872070312 73 c 0
 395.990234375 68 513.224609375 75 561.458984375 82 c 1
 588.159179688 120 603.270507812 166 613.970703125 204 c 1
 687.380859375 212 l 1
 687.380859375 212 683.509765625 139 673.106445312 80 c 0
 668.874023438 56 652 0 652 0 c 1
 12 0 l 1
EndSplineSet
Validated: 524325
EndChar

StartChar: Y
Encoding: 89 89 52
GlifName: Y_
Width: 681
VWidth: 79
Flags: HMW
LayerCount: 2
Back
Fore
SplineSet
109.4140625 802 m 1
 222.532226562 797 306.885742188 799 421.4140625 802 c 1
 425.892578125 748 l 1
 348.834960938 742 314.810856352 724.349164624 332.138671875 670 c 0
 347.64972354 621.349164624 377.272460938 563 401.810546875 498 c 1
 406.639648438 463 419.17578125 415 419.17578125 415 c 1
 475.87109375 487 538.114161017 557.216165233 615.2578125 665 c 0
 656.208887579 722.216165233 602.834960938 742 534.305664062 739 c 1
 536.4140625 802 l 1
 632.356445312 796 728.708984375 798 826.4140625 802 c 1
 827.1875 744 l 1
 766.834960938 742 732.192382812 710 694.728515625 662 c 0
 571.044921875 505 493.646484375 412 442.541015625 332 c 1
 413.01171875 329 382.424804688 320 346.661132812 310 c 1
 310.646484375 412 275.502245482 481.104788963 206.786132812 668 c 0
 183.584276732 731.104788963 154.36328125 745 107.1875 744 c 1
 109.4140625 802 l 1
189.166992188 69 m 1
 259.521484375 54 287.3984375 93 303.567382812 145 c 0
 319.560546875 196 331.668945312 259 339.533203125 383 c 1
 462.649414062 395 l 1
 415.610351562 253 413.798828125 169 416.51171875 122 c 0
 418.872070312 73 437.932617188 62 491.166992188 69 c 1
 500 0 l 1
 184.823242188 -1 l 1
 189.166992188 69 l 1
EndSplineSet
Validated: 524325
Colour: ff0000
EndChar

StartChar: X
Encoding: 88 88 53
GlifName: X_
Width: 813
VWidth: 79
Flags: HMW
LayerCount: 2
Back
Fore
SplineSet
160.23828125 801 m 1
 284.297851562 790 423.651367188 792 524.061523438 800 c 1
 531.776367188 736 l 1
 429.600585938 735 382.831192383 709.416008466 407.612304688 650 c 0
 420.785293946 618.416008466 502.875976562 453 509.583984375 440 c 1
 536.2890625 444 l 1
 587.71484375 350 674.6953125 72 807.990234375 68 c 1
 811.470703125 -3 l 1
 436.470703125 -3 l 1
 435.755859375 61 l 1
 482.874023438 56 571.932617188 62 532.801757812 152 c 0
 507.028320312 210 457.306640625 325 423.533203125 383 c 1
 394.533203125 383 l 1
 364.934570312 459 310.382603051 549.76118043 277.438476562 632 c 0
 247.890415551 705.76118043 221.600585938 735 158.423828125 734 c 1
 160.23828125 801 l 1
35.9326171875 62 m 1
 111.755859375 61 141.337890625 104 179.919921875 147 c 0
 229.793945312 203 356.243164062 353 421.0546875 437 c 1
 490.0546875 437 l 1
 549.869140625 504 630.327148438 586 671.497070312 638 c 0
 720.60546875 701 684.71875 730 612.895507812 731 c 1
 617.23828125 801 l 1
 713.827148438 793 833.827148438 793 922.23828125 801 c 1
 922.305664062 739 l 1
 823.305664062 739 818.900390625 697 754.8515625 623 c 0
 689.451171875 547 597.641601562 446 548.47265625 394 c 1
 485.180664062 381 l 1
 420.77734375 322 352.92441942 234.994825565 298.741210938 163 c 0
 264.117778794 116.994825565 253.345703125 53 342.05078125 57 c 1
 347.470703125 -3 l 1
 27.470703125 -3 l 1
 35.9326171875 62 l 1
EndSplineSet
Validated: 524325
Colour: ff0000
EndChar

StartChar: N
Encoding: 78 78 54
GlifName: N_
Width: 926
VWidth: 79
Flags: HMW
LayerCount: 2
Back
Fore
SplineSet
25.1669921875 69 m 1
 95.521484375 54 146.9296875 79 166.565429688 162 c 0
 194.137695312 273 233.4609375 479 258.377929688 643 c 0
 273.423828125 734 228.305664062 739 156.541992188 729 c 1
 156.36328125 745 160.474609375 791 160.061523438 800 c 1
 257.474609375 791 318.297851562 790 433.00390625 794 c 1
 489.373046875 677 702.903320312 266 768.685546875 140 c 0
 772.275390625 132 701.337890625 104 704.927734375 96 c 1
 737.209960938 177 795.336914062 518 808.377929688 643 c 0
 817.423828125 734 776.305664062 739 704.541992188 729 c 1
 704.36328125 745 708.474609375 791 708.061523438 800 c 1
 773.00390625 794 792.474609375 791 864.651367188 792 c 0
 905.651367188 792 975.827148438 793 1038.23828125 801 c 1
 1038.23828125 801 1035.12695312 755 1034.77636719 736 c 1
 985.010742188 743 933.955078125 720 919.2578125 665 c 0
 872.6953125 486 827.91015625 215 798 0 c 1
 769.294921875 -4 752.118164062 -5 700.178710938 -16 c 1
 698.001953125 -17 l 1
 565.963867188 255 469.641601562 446 356.612304688 650 c 1
 312.521484375 468 266.796875 186 264.509765625 139 c 0
 263.166992188 69 317.932617188 62 371.166992188 69 c 1
 370 0 l 1
 20.8232421875 -1 l 1
 25.1669921875 69 l 1
EndSplineSet
Validated: 524325
EndChar

StartChar: M
Encoding: 77 77 55
GlifName: M_
Width: 1093
VWidth: 79
Flags: HMW
LayerCount: 2
Back
Fore
SplineSet
160.061523438 800 m 1
 257.474609375 791 307.297851562 790 422.00390625 794 c 1
 448.368164062 711 537.984486158 505.475565669 580.71484375 350 c 0
 597.074329908 290.475565669 602.734375 214 619.033203125 176 c 1
 596.454101562 116 l 1
 523.750976562 95 l 1
 502.326171875 189 381.916992188 578 346.612304688 650 c 1
 344.025390625 641 381.254882812 682 378.66796875 673 c 0
 336.576171875 491 286.267578125 183 284.509765625 139 c 0
 283.166992188 69 357.932617188 62 411.166992188 69 c 1
 410 0 l 1
 30.8232421875 -1 l 1
 35.1669921875 69 l 1
 105.521484375 54 166.9296875 79 186.565429688 162 c 0
 214.137695312 273 253.4609375 479 278.377929688 643 c 0
 293.423828125 734 208.305664062 739 156.541992188 729 c 1
 156.36328125 745 160.474609375 791 160.061523438 800 c 1
527.44921875 150 m 1
 674.888671875 368 851.373046875 677 919.00390625 794 c 1
 1032.29785156 790 1107.47460938 791 1208.06152344 800 c 1
 1206.94824219 771 1205.36328125 745 1206.54199219 729 c 1
 1138.30566406 739 1080.42382812 734 1063.37792969 643 c 0
 1030.4609375 479 997.137695312 273 985.565429688 162 c 0
 975.9296875 79 1012.52148438 54 1088.16699219 69 c 1
 1087.82324219 -1 l 1
 676 0 l 1
 679.166992188 69 l 1
 729.932617188 62 817.166992188 69 840.509765625 139 c 0
 854.796875 186 917.336914062 518 937.428710938 700 c 1
 928.666015625 690 987.191372506 738.745333464 979.366210938 728 c 0
 853.923794381 555.745333464 752.359375 365 597.454101562 116 c 1
 527.44921875 150 l 1
EndSplineSet
Validated: 524325
EndChar

StartChar: grave
Encoding: 96 96 56
GlifName: grave
Width: 496
VWidth: 0
Flags: HMW
LayerCount: 2
Back
Fore
SplineSet
235.220703125 920 m 9
 235.69921875 866 l 17
 346.34375 881 536.920898438 958 608.032226562 1004 c 9
 564.607421875 1098 l 17
 489.969726562 1032 331.099609375 942 235.220703125 920 c 9
EndSplineSet
Validated: 524297
EndChar

StartChar: question
Encoding: 63 63 58
GlifName: question
Width: 542
VWidth: 153
Flags: HMW
LayerCount: 2
Back
Fore
SplineSet
209.071289062 732 m 1
 321.071289062 732 l 1
 304.900390625 697 285.556640625 627 276.385742188 592 c 1
 189.26953125 580 l 1
 186.912109375 612 197.900390625 697 209.071289062 732 c 1
209.071289062 732 m 1
 267.890625 765 361.23828125 801 448.23828125 801 c 0
 567.23828125 801 653.423828125 734 598.26953125 580 c 0
 530.296875 393 358.833007812 345 269.072265625 318 c 1
 262.661132812 310 327.651367188 378 325.182617188 364 c 0
 313.721679688 299 314.615234375 219 314.913085938 198 c 1
 201.560546875 196 l 1
 209.083984375 233 226.951171875 340 232.182617188 364 c 1
 286.475585938 377 432.53125 400 476.805664062 532 c 0
 512.143554688 636 483.307617188 722 361.071289062 732 c 0
 307.776367188 736 260.192382812 710 227.194335938 693 c 1
 209.071289062 732 l 1
EndSplineSet
Refer: 10 46 N 1 0 0.176327 1 117.353 2 2
Validated: 524325
EndChar

StartChar: quotesingle
Encoding: 39 39 59
GlifName: quotesingle
Width: 192
VWidth: 79
Flags: HMW
LayerCount: 2
Back
Fore
SplineSet
153.540039062 746 m 0
 159.651367188 792 198.940429688 822 236.940429688 822 c 0
 282.940429688 822 302.1796875 795 295.302734375 756 c 0
 288.426757812 717 260.3125 688 221.725585938 679 c 1
 204.3125 688 147.076171875 698 153.540039062 746 c 0
146.090820312 596 m 1
 154.030273438 607 188.19921875 659 186.71875 730 c 9
 247.479492188 757 l 25
 251.836914062 725 301.76953125 787 295.302734375 756 c 0
 283.958007812 703 198.915039062 595 170.387695312 575 c 1
 146.090820312 596 l 1
EndSplineSet
Validated: 524325
EndChar

StartChar: exclam
Encoding: 33 33 62
GlifName: exclam
Width: 330
VWidth: 153
Flags: HMW
LayerCount: 2
Back
Fore
SplineSet
221.59765625 752 m 1
 252.830078125 776 312.827148438 793 346.474609375 791 c 1
 346.474609375 791 353.83203125 759 343.900390625 697 c 0
 315.629882812 531 269.999023438 414 212.205078125 211 c 1
 138.323242188 206 l 1
 185.354492188 399 219.26953125 580 221.59765625 752 c 1
EndSplineSet
Refer: 10 46 N 1 0 0.176327 1 37.2367 -10 2
Validated: 524321
EndChar

StartChar: parenright
Encoding: 41 41 63
GlifName: parenright
Width: 371
VWidth: 153
Flags: HMW
LayerCount: 2
Back
Fore
SplineSet
35.2490234375 -95 m 1
 139.524414062 37 232.211914062 241.00390625 262.883789062 402 c 0
 289.745117188 543 285.723632812 696 212.530273438 814 c 1
 283.522460938 865 l 1
 328.059570312 817 412.431640625 683 393.223632812 489 c 0
 371.197265625 262 246.521484375 54 93.548828125 -133 c 1
 35.2490234375 -95 l 1
EndSplineSet
Validated: 524321
EndChar

StartChar: parenleft
Encoding: 40 40 64
GlifName: parenleft
Width: 371
VWidth: 153
Flags: HMW
LayerCount: 2
Back
Fore
SplineSet
122.436523438 235 m 0
 144.462890625 462 267.723632812 696 420.696289062 883 c 1
 485.701171875 849 l 1
 381.426757812 717 284.166015625 483 257.77734375 322 c 0
 235.678710938 191 218.173828125 18 299.604492188 -110 c 1
 228.08203125 -164 l 1
 178.193359375 -118 103.229492188 41 122.436523438 235 c 0
EndSplineSet
Validated: 524321
EndChar

StartChar: hyphen
Encoding: 45 45 65
GlifName: hyphen
Width: 569
VWidth: 153
Flags: HW
HStem: 328 105<129.35 311.076 435.691 578.398>
LayerCount: 2
Back
Fore
SplineSet
96.8349609375 328 m 1
 129.349609375 433 l 1
 320.5859375 423 431.5859375 423 605.349609375 433 c 1
 598.588867188 406 584.830078125 362 576.834960938 328 c 1
 96.8349609375 328 l 1
EndSplineSet
Validated: 524321
EndChar

StartChar: underscore
Encoding: 95 95 66
GlifName: underscore
Width: 669
VWidth: 153
Flags: HW
HStem: 1 95<69.9277 281.116 446.807 620.72>
LayerCount: 2
Back
Fore
SplineSet
39.1767578125 1 m 1
 69.927734375 96 l 1
 261.1640625 86 472.1640625 86 645.927734375 96 c 1
 639.166992188 69 627.171875 35 619.176757812 1 c 1
 39.1767578125 1 l 1
EndSplineSet
Validated: 524321
EndChar

StartChar: emdash
Encoding: 257 8212 67
GlifName: emdash
Width: 669
VWidth: 153
Flags: HW
HStem: 328 95<53 265.407 431.097 619.42>
LayerCount: 2
Back
Fore
SplineSet
39 328 m 1
 53 423 l 1
 246 413 457 413 629 423 c 1
 627 396 621 362 619 328 c 1
 39 328 l 1
EndSplineSet
Validated: 33
EndChar

StartChar: r
Encoding: 114 114 69
GlifName: r
Width: 596
VWidth: 79
Flags: HW
HStem: 516 39<39.915 128.598>
LayerCount: 2
Back
Fore
SplineSet
133 56 m 17
 169.208984375 191.23046875 233.529296875 553.903320312 589 609 c 1
 569.340820312 537.189453125 557.490234375 486.751953125 549 420 c 1
 520 465 467.981445312 472.299804688 426 464 c 0
 300.006835938 439.090820312 172 206 188 -7 c 9
 133 56 l 17
39.9150390625 555 m 1
 195.694335938 558.5390625 314.189453125 608 316.20703125 608 c 1
 302.1953125 553.265625 253.763671875 426.028320312 229.890625 279 c 0
 214.269956784 182.788072839 202.891291264 108.784949668 217.763671875 -7 c 1
 161.588867188 -7.6171875 93.029296875 -17.9619140625 51.318359375 -29 c 1
 89.22265625 48.005859375 150.860351562 196.821289062 162.651367188 288 c 0
 186.190429688 470.021484375 173.73046875 511.993164062 28.158203125 516 c 1
 39.9150390625 555 l 1
EndSplineSet
Validated: 2621477
EndChar

StartChar: f
Encoding: 102 102 70
GlifName: f
Width: 591
VWidth: 79
Flags: HW
HStem: 493 68<139.197 235.998 378.35 509.094>
LayerCount: 2
Back
Fore
SplineSet
139.197265625 561 m 1
 255.485428323 556.043945312 408.154092181 555.5 517.197265625 561 c 1
 509.09375 495 l 1
 461.00447351 488.388671875 412.914471802 487.955078125 364.825195312 476.526367188 c 1
 257.981445312 412.640625 l 1
 265.27106551 479.45703125 194.96723768 502.84765625 130.84765625 493 c 1
 139.197265625 561 l 1
279.495117188 565 m 0
 335.411802279 875.127929688 479.308164943 919.985351562 604.48828125 907 c 0
 685.713159808 896.50390625 722.787109375 866 722.787109375 866 c 1
 716.130859375 810.548828125 695.340820312 698.377929688 689.159179688 658 c 1
 659.889716517 760.97265625 579.499310913 863.971679688 530.244140625 849 c 0
 466.216140251 834.622070312 438.673827211 767.455226095 411.388671875 681 c 1
 378.403646437 524.580668953 333.535598408 319.016568322 306.94140625 23 c 0
 286.471353683 -204.849549945 150.348571099 -230.799484486 46 -229.5390625 c 0
 -38.833946483 -228.044604229 -102.248046875 -194 -102.248046875 -194 c 1
 -29.6337890625 -19 l 1
 -29.6337890625 -19 22.1586630611 -165.644305971 100 -167.883789062 c 0
 139.329534114 -169.015293609 249.180565016 156.085710384 257.048828125 400 c 0
 258.594760706 447.92354322 282.364257812 491.301757812 284.7421875 526 c 0
 286.5078125 551.758789062 275 538.434570312 279.495117188 565 c 0
EndSplineSet
Validated: 2621477
EndChar
